<svg width="4" height="8" viewBox="0 0 4 8" fill="none" xmlns="http://www.w3.org/2000/svg">
<path fillRule="evenodd" clipRule="evenodd" d="M0.323041 7.17698C0.29976 7.15376 0.281289 7.12617 0.268685 7.0958C0.256082 7.06542 0.249595 7.03286 0.249595 6.99998C0.249595 6.9671 0.256082 6.93454 0.268685 6.90416C0.281289 6.87379 0.29976 6.8462 0.323041 6.82298L3.14654 3.99998L0.323041 1.17698C0.276098 1.13004 0.249725 1.06637 0.249725 0.999981C0.249725 0.933593 0.276098 0.869924 0.323041 0.822981C0.369984 0.776037 0.433653 0.749665 0.500041 0.749665C0.566429 0.749665 0.630098 0.776037 0.677041 0.822981L3.67704 3.82298C3.70032 3.8462 3.71879 3.87379 3.7314 3.90416C3.744 3.93454 3.75049 3.9671 3.75049 3.99998C3.75049 4.03286 3.744 4.06542 3.7314 4.0958C3.71879 4.12617 3.70032 4.15376 3.67704 4.17698L0.677042 7.17698C0.653819 7.20026 0.626231 7.21873 0.595858 7.23134C0.565486 7.24394 0.532925 7.25043 0.500041 7.25043C0.467158 7.25043 0.434597 7.24394 0.404225 7.23134C0.373852 7.21873 0.346264 7.20026 0.323041 7.17698V7.17698Z" fill="#6B7280"/>
</svg>
