<svg width="8" height="9" viewBox="0 0 8 9" fill="none" xmlns="http://www.w3.org/2000/svg">
<path fillRule="evenodd" clipRule="evenodd" d="M5.67696 1.32296C5.70024 1.34618 5.71871 1.37377 5.73131 1.40414C5.74392 1.43451 5.75041 1.46707 5.75041 1.49996C5.75041 1.53284 5.74392 1.5654 5.73131 1.59578C5.71871 1.62615 5.70024 1.65374 5.67696 1.67696L2.85346 4.49996L5.67696 7.32296C5.7239 7.3699 5.75027 7.43357 5.75027 7.49996C5.75027 7.56635 5.7239 7.63002 5.67696 7.67696C5.63002 7.7239 5.56635 7.75027 5.49996 7.75027C5.43357 7.75027 5.3699 7.7239 5.32296 7.67696L2.32296 4.67696C2.29968 4.65374 2.28121 4.62615 2.2686 4.59578C2.256 4.5654 2.24951 4.53284 2.24951 4.49996C2.24951 4.46707 2.256 4.43451 2.2686 4.40414C2.28121 4.37377 2.29968 4.34618 2.32296 4.32296L5.32296 1.32296C5.34618 1.29968 5.37377 1.28121 5.40414 1.2686C5.43451 1.256 5.46707 1.24951 5.49996 1.24951C5.53284 1.24951 5.5654 1.256 5.59578 1.2686C5.62615 1.28121 5.65374 1.29968 5.67696 1.32296V1.32296Z" fill="#6B7280"/>
</svg>
