<svg width="38" height="38" viewBox="0 0 38 38" fill="none" xmlns="http://www.w3.org/2000/svg">
<rect x="2.5" y="2.5" width="33" height="33" rx="16.5" fill="#FEE2E2"/>
<path d="M15.875 15.875C16.0408 15.875 16.1997 15.9408 16.3169 16.0581C16.4342 16.1753 16.5 16.3342 16.5 16.5V24C16.5 24.1658 16.4342 24.3247 16.3169 24.4419C16.1997 24.5592 16.0408 24.625 15.875 24.625C15.7092 24.625 15.5503 24.5592 15.4331 24.4419C15.3158 24.3247 15.25 24.1658 15.25 24V16.5C15.25 16.3342 15.3158 16.1753 15.4331 16.0581C15.5503 15.9408 15.7092 15.875 15.875 15.875V15.875ZM19 15.875C19.1658 15.875 19.3247 15.9408 19.4419 16.0581C19.5592 16.1753 19.625 16.3342 19.625 16.5V24C19.625 24.1658 19.5592 24.3247 19.4419 24.4419C19.3247 24.5592 19.1658 24.625 19 24.625C18.8342 24.625 18.6753 24.5592 18.5581 24.4419C18.4408 24.3247 18.375 24.1658 18.375 24V16.5C18.375 16.3342 18.4408 16.1753 18.5581 16.0581C18.6753 15.9408 18.8342 15.875 19 15.875V15.875ZM22.75 16.5C22.75 16.3342 22.6842 16.1753 22.5669 16.0581C22.4497 15.9408 22.2908 15.875 22.125 15.875C21.9592 15.875 21.8003 15.9408 21.6831 16.0581C21.5658 16.1753 21.5 16.3342 21.5 16.5V24C21.5 24.1658 21.5658 24.3247 21.6831 24.4419C21.8003 24.5592 21.9592 24.625 22.125 24.625C22.2908 24.625 22.4497 24.5592 22.5669 24.4419C22.6842 24.3247 22.75 24.1658 22.75 24V16.5Z" fill="#EF4444"/>
<path fill-rule="evenodd" clip-rule="evenodd" d="M27.125 12.75C27.125 13.0815 26.9933 13.3995 26.7589 13.6339C26.5245 13.8683 26.2065 14 25.875 14H25.25V25.25C25.25 25.913 24.9866 26.5489 24.5178 27.0178C24.0489 27.4866 23.413 27.75 22.75 27.75H15.25C14.587 27.75 13.9511 27.4866 13.4822 27.0178C13.0134 26.5489 12.75 25.913 12.75 25.25V14H12.125C11.7935 14 11.4755 13.8683 11.2411 13.6339C11.0067 13.3995 10.875 13.0815 10.875 12.75V11.5C10.875 11.1685 11.0067 10.8505 11.2411 10.6161C11.4755 10.3817 11.7935 10.25 12.125 10.25H16.5C16.5 9.91848 16.6317 9.60054 16.8661 9.36612C17.1005 9.1317 17.4185 9 17.75 9H20.25C20.5815 9 20.8995 9.1317 21.1339 9.36612C21.3683 9.60054 21.5 9.91848 21.5 10.25H25.875C26.2065 10.25 26.5245 10.3817 26.7589 10.6161C26.9933 10.8505 27.125 11.1685 27.125 11.5V12.75ZM14.1475 14L14 14.0738V25.25C14 25.5815 14.1317 25.8995 14.3661 26.1339C14.6005 26.3683 14.9185 26.5 15.25 26.5H22.75C23.0815 26.5 23.3995 26.3683 23.6339 26.1339C23.8683 25.8995 24 25.5815 24 25.25V14.0738L23.8525 14H14.1475ZM12.125 12.75V11.5H25.875V12.75H12.125Z" fill="#EF4444"/>
<rect x="2.5" y="2.5" width="33" height="33" rx="16.5" stroke="#FEF2F2" stroke-width="5"/>
</svg>
