<svg width="12" height="12" viewBox="0 0 12 12" fill="none" xmlns="http://www.w3.org/2000/svg">
<g clipPath="url(#clip0_2_74031)">
<mask id="path-1-inside-1_2_74031" fill="white">
<path fillRule="evenodd" clipRule="evenodd" d="M11.0722 0.0561618C11.1266 0.0897576 11.1714 0.136671 11.2025 0.192454C11.2336 0.248237 11.25 0.311041 11.25 0.374912V11.6249C11.25 11.7244 11.2105 11.8198 11.1402 11.8901C11.0698 11.9604 10.9745 11.9999 10.875 11.9999H8.625C8.52554 11.9999 8.43016 11.9604 8.35983 11.8901C8.28951 11.8198 8.25 11.7244 8.25 11.6249V10.4999H7.5V11.6249C7.5 11.7244 7.46049 11.8198 7.39017 11.8901C7.31984 11.9604 7.22446 11.9999 7.125 11.9999H0.375C0.275544 11.9999 0.180161 11.9604 0.109835 11.8901C0.0395088 11.8198 0 11.7244 0 11.6249V7.49991C5.97351e-05 7.42124 0.0248611 7.34458 0.0708937 7.28078C0.116926 7.21698 0.181859 7.16927 0.2565 7.14441L4.5 5.72991V3.37491C4.5 3.30533 4.51937 3.23712 4.55592 3.17791C4.59248 3.1187 4.64479 3.07084 4.707 3.03966L10.707 0.0396618C10.7642 0.0110162 10.8278 -0.00250605 10.8918 0.00038211C10.9557 0.00327027 11.0178 0.0224727 11.0722 0.0561618ZM4.5 6.52041L0.75 7.76991V11.2499H4.5V6.52041ZM5.25 11.2499H6.75V10.1249C6.75 10.0255 6.78951 9.93007 6.85983 9.85975C6.93016 9.78942 7.02554 9.74991 7.125 9.74991H8.625C8.72446 9.74991 8.81984 9.78942 8.89017 9.85975C8.96049 9.93007 9 10.0255 9 10.1249V11.2499H10.5V0.981662L5.25 3.60666V11.2499Z"/>
</mask>
<path fillRule="evenodd" clipRule="evenodd" d="M11.0722 0.0561618C11.1266 0.0897576 11.1714 0.136671 11.2025 0.192454C11.2336 0.248237 11.25 0.311041 11.25 0.374912V11.6249C11.25 11.7244 11.2105 11.8198 11.1402 11.8901C11.0698 11.9604 10.9745 11.9999 10.875 11.9999H8.625C8.52554 11.9999 8.43016 11.9604 8.35983 11.8901C8.28951 11.8198 8.25 11.7244 8.25 11.6249V10.4999H7.5V11.6249C7.5 11.7244 7.46049 11.8198 7.39017 11.8901C7.31984 11.9604 7.22446 11.9999 7.125 11.9999H0.375C0.275544 11.9999 0.180161 11.9604 0.109835 11.8901C0.0395088 11.8198 0 11.7244 0 11.6249V7.49991C5.97351e-05 7.42124 0.0248611 7.34458 0.0708937 7.28078C0.116926 7.21698 0.181859 7.16927 0.2565 7.14441L4.5 5.72991V3.37491C4.5 3.30533 4.51937 3.23712 4.55592 3.17791C4.59248 3.1187 4.64479 3.07084 4.707 3.03966L10.707 0.0396618C10.7642 0.0110162 10.8278 -0.00250605 10.8918 0.00038211C10.9557 0.00327027 11.0178 0.0224727 11.0722 0.0561618ZM4.5 6.52041L0.75 7.76991V11.2499H4.5V6.52041ZM5.25 11.2499H6.75V10.1249C6.75 10.0255 6.78951 9.93007 6.85983 9.85975C6.93016 9.78942 7.02554 9.74991 7.125 9.74991H8.625C8.72446 9.74991 8.81984 9.78942 8.89017 9.85975C8.96049 9.93007 9 10.0255 9 10.1249V11.2499H10.5V0.981662L5.25 3.60666V11.2499Z" fill="#1F2937"/>
<path d="M11.25 0.374912H12.25V0.374427L11.25 0.374912ZM8.25 10.4999H9.25V9.49991H8.25V10.4999ZM7.5 10.4999V9.49991H6.5V10.4999H7.5ZM0 11.6249H-1H0ZM0 7.49991L-1 7.49915V7.49991H0ZM0.2565 7.14441L0.5725 8.09317L0.572728 8.0931L0.2565 7.14441ZM4.5 5.72991L4.81623 6.6786L5.5 6.45067V5.72991H4.5ZM4.5 3.37491L3.5 3.37488V3.37491H4.5ZM4.707 3.03966L4.25979 2.14523L4.259 2.14563L4.707 3.03966ZM10.707 0.0396618L11.1542 0.934089L11.1546 0.933897L10.707 0.0396618ZM11.0722 0.0561618L10.5458 0.906397L10.5462 0.906646L11.0722 0.0561618ZM4.5 6.52041H5.5V5.13316L4.18389 5.57169L4.5 6.52041ZM0.75 7.76991L0.433886 6.82119L-0.25 7.04906V7.76991H0.75ZM0.75 11.2499H-0.25V12.2499H0.75V11.2499ZM4.5 11.2499V12.2499H5.5V11.2499H4.5ZM5.25 11.2499H4.25V12.2499H5.25V11.2499ZM6.75 11.2499V12.2499H7.75V11.2499H6.75ZM9 11.2499H8V12.2499H9V11.2499ZM10.5 11.2499V12.2499H11.5V11.2499H10.5ZM10.5 0.981662H11.5V-0.636372L10.0528 0.0872347L10.5 0.981662ZM5.25 3.60666L4.80279 2.71223L4.25 2.98863V3.60666H5.25ZM10.5462 0.906646C10.4557 0.850655 10.381 0.772466 10.3291 0.679492L12.0759 -0.294584C11.9618 -0.499124 11.7974 -0.671139 11.5982 -0.794323L10.5462 0.906646ZM10.3291 0.679492C10.2773 0.586521 10.2501 0.481848 10.25 0.375396L12.25 0.374427C12.2499 0.140235 12.19 -0.0900462 12.0759 -0.294584L10.3291 0.679492ZM10.25 0.374912V11.6249H12.25V0.374912H10.25ZM10.25 11.6249C10.25 11.4592 10.3158 11.3002 10.4331 11.183L11.8473 12.5972C12.1051 12.3393 12.25 11.9896 12.25 11.6249H10.25ZM10.4331 11.183C10.5503 11.0658 10.7092 10.9999 10.875 10.9999V12.9999C11.2397 12.9999 11.5894 12.855 11.8473 12.5972L10.4331 11.183ZM10.875 10.9999H8.625V12.9999H10.875V10.9999ZM8.625 10.9999C8.79076 10.9999 8.94973 11.0658 9.06694 11.183L7.65273 12.5972C7.91059 12.855 8.26033 12.9999 8.625 12.9999V10.9999ZM9.06694 11.183C9.18415 11.3002 9.25 11.4592 9.25 11.6249H7.25C7.25 11.9896 7.39486 12.3393 7.65273 12.5972L9.06694 11.183ZM9.25 11.6249V10.4999H7.25V11.6249H9.25ZM8.25 9.49991H7.5V11.4999H8.25V9.49991ZM6.5 10.4999V11.6249H8.5V10.4999H6.5ZM6.5 11.6249C6.5 11.4592 6.56585 11.3002 6.68306 11.183L8.09727 12.5972C8.35514 12.3393 8.5 11.9896 8.5 11.6249H6.5ZM6.68306 11.183C6.80027 11.0658 6.95924 10.9999 7.125 10.9999V12.9999C7.48967 12.9999 7.83941 12.855 8.09727 12.5972L6.68306 11.183ZM7.125 10.9999H0.375V12.9999H7.125V10.9999ZM0.375 10.9999C0.540758 10.9999 0.69973 11.0658 0.816942 11.183L-0.597272 12.5972C-0.339408 12.855 0.0103293 12.9999 0.375 12.9999V10.9999ZM0.816942 11.183C0.934153 11.3002 1 11.4592 1 11.6249H-1C-1 11.9896 -0.855135 12.3393 -0.597272 12.5972L0.816942 11.183ZM1 11.6249V7.49991H-1V11.6249H1ZM1 7.50067C0.9999 7.63179 0.958565 7.75956 0.881844 7.86589L-0.740056 6.69566C-0.908842 6.92959 -0.999781 7.21069 -1 7.49915L1 7.50067ZM0.881844 7.86589C0.805123 7.97223 0.696902 8.05174 0.5725 8.09317L-0.0594997 6.19565C-0.333185 6.28681 -0.57127 6.46173 -0.740056 6.69566L0.881844 7.86589ZM0.572728 8.0931L4.81623 6.6786L4.18377 4.78123L-0.0597279 6.19573L0.572728 8.0931ZM5.5 5.72991V3.37491H3.5V5.72991H5.5ZM5.5 3.37495C5.5 3.49092 5.46772 3.6046 5.4068 3.70328L3.70505 2.65254C3.57101 2.86963 3.50001 3.11974 3.5 3.37488L5.5 3.37495ZM5.4068 3.70328C5.34587 3.80196 5.25868 3.88174 5.155 3.9337L4.259 2.14563C4.0309 2.25993 3.83909 2.43545 3.70505 2.65254L5.4068 3.70328ZM5.15421 3.93409L11.1542 0.934089L10.2598 -0.854765L4.25979 2.14523L5.15421 3.93409ZM11.1546 0.933897C11.0592 0.98164 10.9532 1.00418 10.8466 0.999363L10.9369 -0.998599C10.7025 -1.00919 10.4692 -0.959607 10.2594 -0.854573L11.1546 0.933897ZM10.8466 0.999363C10.7401 0.99455 10.6365 0.962545 10.5458 0.906397L11.5987 -0.794073C11.3991 -0.9176 11.1713 -0.988009 10.9369 -0.998599L10.8466 0.999363ZM4.18389 5.57169L0.433886 6.82119L1.06611 8.71863L4.81611 7.46913L4.18389 5.57169ZM-0.25 7.76991V11.2499H1.75V7.76991H-0.25ZM0.75 12.2499H4.5V10.2499H0.75V12.2499ZM5.5 11.2499V6.52041H3.5V11.2499H5.5ZM5.25 12.2499H6.75V10.2499H5.25V12.2499ZM7.75 11.2499V10.1249H5.75V11.2499H7.75ZM7.75 10.1249C7.75 10.2907 7.68415 10.4496 7.56694 10.5669L6.15273 9.15264C5.89486 9.4105 5.75 9.76024 5.75 10.1249H7.75ZM7.56694 10.5669C7.44973 10.6841 7.29076 10.7499 7.125 10.7499V8.74991C6.76033 8.74991 6.41059 8.89478 6.15273 9.15264L7.56694 10.5669ZM7.125 10.7499H8.625V8.74991H7.125V10.7499ZM8.625 10.7499C8.45924 10.7499 8.30027 10.6841 8.18306 10.5669L9.59727 9.15264C9.33941 8.89478 8.98967 8.74991 8.625 8.74991V10.7499ZM8.18306 10.5669C8.06585 10.4496 8 10.2907 8 10.1249H10C10 9.76024 9.85514 9.4105 9.59727 9.15264L8.18306 10.5669ZM8 10.1249V11.2499H10V10.1249H8ZM9 12.2499H10.5V10.2499H9V12.2499ZM11.5 11.2499V0.981662H9.5V11.2499H11.5ZM10.0528 0.0872347L4.80279 2.71223L5.69721 4.50109L10.9472 1.87609L10.0528 0.0872347ZM4.25 3.60666V11.2499H6.25V3.60666H4.25Z" fill="#1F2937" mask="url(#path-1-inside-1_2_74031)"/>
<path d="M1.5 8.25H2.25V9H1.5V8.25ZM3 8.25H3.75V9H3V8.25ZM1.5 9.75H2.25V10.5H1.5V9.75ZM3 9.75H3.75V10.5H3V9.75ZM6 6.75H6.75V7.5H6V6.75ZM7.5 6.75H8.25V7.5H7.5V6.75ZM6 8.25H6.75V9H6V8.25ZM7.5 8.25H8.25V9H7.5V8.25ZM9 6.75H9.75V7.5H9V6.75ZM9 8.25H9.75V9H9V8.25ZM6 5.25H6.75V6H6V5.25ZM7.5 5.25H8.25V6H7.5V5.25ZM9 5.25H9.75V6H9V5.25ZM6 3.75H6.75V4.5H6V3.75ZM7.5 3.75H8.25V4.5H7.5V3.75ZM9 3.75H9.75V4.5H9V3.75ZM9 2.25H9.75V3H9V2.25Z" fill="#1F2937"/>
</g>
<defs>
<clipPath id="clip0_2_74031">
<rect width="12" height="12" fill="white"/>
</clipPath>
</defs>
</svg>
