<svg width="10" height="11" viewBox="0 0 10 11" fill="none" xmlns="http://www.w3.org/2000/svg">
<g clipPath="url(#clip0_1_8523)">
<mask id="path-1-inside-1_1_8523" fill="white">
<path d="M5 2.6875C5 2.60462 4.96708 2.52513 4.90847 2.46653C4.84987 2.40792 4.77038 2.375 4.6875 2.375C4.60462 2.375 4.52513 2.40792 4.46653 2.46653C4.40792 2.52513 4.375 2.60462 4.375 2.6875V6.125C4.37502 6.18008 4.38959 6.23418 4.41725 6.28182C4.44491 6.32945 4.48467 6.36893 4.5325 6.39625L6.72 7.64625C6.79179 7.68505 6.8759 7.69423 6.95437 7.67183C7.03283 7.64943 7.09942 7.59722 7.13991 7.52637C7.18039 7.45553 7.19156 7.37165 7.17102 7.29268C7.15048 7.21371 7.09987 7.1459 7.03 7.10375L5 5.94375V2.6875Z"/>
</mask>
<path d="M5 2.6875C5 2.60462 4.96708 2.52513 4.90847 2.46653C4.84987 2.40792 4.77038 2.375 4.6875 2.375C4.60462 2.375 4.52513 2.40792 4.46653 2.46653C4.40792 2.52513 4.375 2.60462 4.375 2.6875V6.125C4.37502 6.18008 4.38959 6.23418 4.41725 6.28182C4.44491 6.32945 4.48467 6.36893 4.5325 6.39625L6.72 7.64625C6.79179 7.68505 6.8759 7.69423 6.95437 7.67183C7.03283 7.64943 7.09942 7.59722 7.13991 7.52637C7.18039 7.45553 7.19156 7.37165 7.17102 7.29268C7.15048 7.21371 7.09987 7.1459 7.03 7.10375L5 5.94375V2.6875Z" fill="#7a8497"/>
<path d="M4.375 6.125L3.375 6.125L3.375 6.12532L4.375 6.125ZM4.5325 6.39625L5.02864 5.52801L5.0285 5.52793L4.5325 6.39625ZM6.72 7.64625L6.22386 8.51449L6.23414 8.52036L6.24455 8.52599L6.72 7.64625ZM7.03 7.10375L7.54655 6.24749L7.53641 6.24138L7.52614 6.23551L7.03 7.10375ZM5 5.94375H4V6.52407L4.50386 6.81199L5 5.94375ZM6 2.6875C6 2.3394 5.86172 2.00556 5.61558 1.75942L4.20136 3.17364C4.07243 3.04471 4 2.86984 4 2.6875H6ZM5.61558 1.75942C5.36944 1.51328 5.0356 1.375 4.6875 1.375V3.375C4.50516 3.375 4.33029 3.30257 4.20136 3.17364L5.61558 1.75942ZM4.6875 1.375C4.3394 1.375 4.00556 1.51328 3.75942 1.75942L5.17364 3.17364C5.04471 3.30257 4.86984 3.375 4.6875 3.375V1.375ZM3.75942 1.75942C3.51328 2.00556 3.375 2.3394 3.375 2.6875H5.375C5.375 2.86984 5.30257 3.04471 5.17364 3.17364L3.75942 1.75942ZM3.375 2.6875V6.125H5.375V2.6875H3.375ZM3.375 6.12532C3.37507 6.35667 3.4363 6.58389 3.55246 6.78395L5.28204 5.77968C5.34289 5.88448 5.37496 6.0035 5.375 6.12468L3.375 6.12532ZM3.55246 6.78395C3.66863 6.98402 3.83562 7.14983 4.0365 7.26457L5.0285 5.52793C5.13372 5.58803 5.22119 5.67488 5.28204 5.77968L3.55246 6.78395ZM4.03636 7.26449L6.22386 8.51449L7.21614 6.77801L5.02864 5.52801L4.03636 7.26449ZM6.24455 8.52599C6.54605 8.68894 6.89933 8.72749 7.22888 8.63341L6.67985 6.71024C6.85247 6.66096 7.03752 6.68116 7.19545 6.76651L6.24455 8.52599ZM7.22888 8.63341C7.55844 8.53933 7.83811 8.32007 8.00815 8.02251L6.27166 7.03024C6.36073 6.87437 6.50722 6.75952 6.67985 6.71024L7.22888 8.63341ZM8.00815 8.02251C8.17818 7.72495 8.22509 7.37269 8.13883 7.041L6.20321 7.54436C6.15803 7.37062 6.1826 7.1861 6.27166 7.03024L8.00815 8.02251ZM8.13883 7.041C8.05257 6.70931 7.84 6.42452 7.54655 6.24749L6.51345 7.96001C6.35974 7.86728 6.24839 7.7181 6.20321 7.54436L8.13883 7.041ZM7.52614 6.23551L5.49614 5.07551L4.50386 6.81199L6.53386 7.97199L7.52614 6.23551ZM6 5.94375V2.6875H4V5.94375H6Z" fill="#7a8497" mask="url(#path-1-inside-1_1_8523)"/>
<path d="M5 10.5C6.32608 10.5 7.59785 9.97322 8.53553 9.03553C9.47322 8.09785 10 6.82608 10 5.5C10 4.17392 9.47322 2.90215 8.53553 1.96447C7.59785 1.02678 6.32608 0.5 5 0.5C3.67392 0.5 2.40215 1.02678 1.46447 1.96447C0.526784 2.90215 0 4.17392 0 5.5C0 6.82608 0.526784 8.09785 1.46447 9.03553C2.40215 9.97322 3.67392 10.5 5 10.5V10.5ZM9.375 5.5C9.375 6.66032 8.91406 7.77312 8.09359 8.59359C7.27312 9.41406 6.16032 9.875 5 9.875C3.83968 9.875 2.72688 9.41406 1.90641 8.59359C1.08594 7.77312 0.625 6.66032 0.625 5.5C0.625 4.33968 1.08594 3.22688 1.90641 2.40641C2.72688 1.58594 3.83968 1.125 5 1.125C6.16032 1.125 7.27312 1.58594 8.09359 2.40641C8.91406 3.22688 9.375 4.33968 9.375 5.5V5.5Z" fill="#7a8497"/>
</g>
<defs>
<clipPath id="clip0_1_8523">
<rect width="10" height="10" fill="white" transform="translate(0 0.5)"/>
</clipPath>
</defs>
</svg>
