<svg width="6" height="6" viewBox="0 0 6 6" fill="none" xmlns="http://www.w3.org/2000/svg">
<path fill-rule="evenodd" clip-rule="evenodd" d="M5.92683 0.0729891C5.95011 0.0962119 5.96858 0.1238 5.98118 0.154172C5.99379 0.184545 6.00028 0.217105 6.00028 0.249989C6.00028 0.282873 5.99379 0.315433 5.98118 0.345806C5.96858 0.376179 5.95011 0.403766 5.92683 0.426989L0.426828 5.92699C0.379884 5.97393 0.316215 6.0003 0.249828 6.0003C0.18344 6.0003 0.119771 5.97393 0.0728275 5.92699C0.0258841 5.88005 -0.000488281 5.81638 -0.000488281 5.74999C-0.000488281 5.6836 0.0258841 5.61993 0.0728275 5.57299L5.57283 0.0729891C5.59605 0.0497075 5.62364 0.0312361 5.65401 0.0186329C5.68438 0.00602966 5.71694 -0.000457764 5.74983 -0.000457764C5.78271 -0.000457764 5.81527 0.00602966 5.84564 0.0186329C5.87602 0.0312361 5.90361 0.0497075 5.92683 0.0729891Z" fill="#374151"/>
<path fill-rule="evenodd" clip-rule="evenodd" d="M0.0729586 0.0729891C0.049677 0.0962119 0.0312056 0.1238 0.0186024 0.154172C0.00599915 0.184545 -0.000488281 0.217105 -0.000488281 0.249989C-0.000488281 0.282873 0.00599915 0.315433 0.0186024 0.345806C0.0312056 0.376179 0.049677 0.403766 0.0729586 0.426989L5.57296 5.92699C5.6199 5.97393 5.68357 6.0003 5.74996 6.0003C5.81635 6.0003 5.88001 5.97393 5.92696 5.92699C5.9739 5.88005 6.00027 5.81638 6.00027 5.74999C6.00027 5.6836 5.9739 5.61993 5.92696 5.57299L3.17696 2.82299L0.426959 0.0729891C0.403736 0.0497075 0.376148 0.0312361 0.345775 0.0186329C0.315403 0.00602966 0.282842 -0.000457764 0.249959 -0.000457764C0.217075 -0.000457764 0.184514 0.00602966 0.154142 0.0186329C0.123769 0.0312361 0.0961814 0.0497075 0.0729586 0.0729891Z" fill="#374151"/>
</svg>
