<svg width="72" height="63" viewBox="0 0 72 63" fill="none" xmlns="http://www.w3.org/2000/svg">
<path d="M15.5173 56.1528C16.2902 57.6825 16.9288 61.4559 14.8117 60.9459C13.5012 60.5381 11.4444 57.6213 12.4928 56.1528C12.6609 55.8468 13.2187 55.2757 14.1059 55.4389" stroke="black" stroke-width="2" strokeLinecap="round"/>
<path d="M15.5173 49.6263L14.0262 48.5579C13.5346 48.2056 12.8477 48.3707 12.658 48.945C12.3456 49.8907 12.1258 51.1463 12.462 52.2324C12.5336 52.4636 12.7127 52.6466 12.9449 52.7146C13.8342 52.9751 15.2568 52.9048 15.8197 51.054" stroke="black" stroke-width="2" strokeLinecap="round"/>
<mask id="path-3-inside-1_1_9392" fill="white">
<ellipse cx="1.09811" cy="0.738034" rx="1.09811" ry="0.738034" transform="matrix(0.921654 0.388014 -0.38048 0.924789 13.4756 42.2966)"/>
</mask>
<path d="M13.3756 43.0553C13.6288 42.44 14.1378 42.2588 14.3273 42.2212C14.5316 42.1807 14.6503 42.2227 14.687 42.2382L13.1651 45.9373C13.7607 46.1881 14.4484 46.2904 15.1206 46.1571C15.7781 46.0267 16.654 45.5996 17.0622 44.6074L13.3756 43.0553ZM14.687 42.2382C14.7237 42.2536 14.8369 42.3092 14.9524 42.4844C15.0596 42.6469 15.2913 43.1398 15.0381 43.7552L11.3515 42.2031C10.9432 43.1954 11.261 44.125 11.6329 44.6888C12.0131 45.2652 12.5694 45.6866 13.1651 45.9373L14.687 42.2382ZM15.0381 43.7552C14.7849 44.3705 14.2759 44.5517 14.0864 44.5893C13.8821 44.6298 13.7634 44.5877 13.7267 44.5723L15.2486 40.8731C14.653 40.6224 13.9653 40.52 13.2931 40.6534C12.6357 40.7838 11.7597 41.2108 11.3515 42.2031L15.0381 43.7552ZM13.7267 44.5723C13.69 44.5568 13.5768 44.5013 13.4613 44.3261C13.3541 44.1636 13.1225 43.6706 13.3756 43.0553L17.0622 44.6074C17.4705 43.6151 17.1527 42.6854 16.7809 42.1217C16.4007 41.5453 15.8443 41.1239 15.2486 40.8731L13.7267 44.5723Z" fill="black" mask="url(#path-3-inside-1_1_9392)"/>
<mask id="path-5-inside-2_1_9392" fill="white">
<ellipse cx="1.00988" cy="1.0181" rx="1.00988" ry="1.0181" transform="matrix(0.921654 0.388014 -0.38048 0.924789 20.8267 55.8872)"/>
</mask>
<path d="M20.4575 56.8364C20.658 56.3491 21.2256 56.0944 21.7436 56.3125L20.2217 60.0117C21.7679 60.6626 23.5157 59.9158 24.1441 58.3885L20.4575 56.8364ZM21.7436 56.3125C22.2617 56.5306 22.4831 57.1174 22.2826 57.6048L18.596 56.0527C17.9676 57.58 18.6756 59.3608 20.2217 60.0117L21.7436 56.3125ZM22.2826 57.6048C22.0821 58.0921 21.5145 58.3467 20.9965 58.1286L22.5184 54.4295C20.9722 53.7786 19.2244 54.5254 18.596 56.0527L22.2826 57.6048ZM20.9965 58.1286C20.4784 57.9105 20.257 57.3237 20.4575 56.8364L24.1441 58.3885C24.7725 56.8611 24.0645 55.0804 22.5184 54.4295L20.9965 58.1286Z" fill="black" mask="url(#path-5-inside-2_1_9392)"/>
<mask id="path-7-inside-3_1_9392" fill="white">
<ellipse cx="1.00988" cy="1.0181" rx="1.00988" ry="1.0181" transform="matrix(0.921654 0.388014 -0.38048 0.924789 6.21045 37.49)"/>
</mask>
<path d="M5.8413 38.4392C6.0418 37.9519 6.60939 37.6972 7.12744 37.9153L5.60552 41.6145C7.15165 42.2654 8.89954 41.5186 9.52791 39.9912L5.8413 38.4392ZM7.12744 37.9153C7.64548 38.1334 7.86689 38.7202 7.66639 39.2075L3.97977 37.6555C3.3514 39.1828 4.05938 40.9636 5.60552 41.6145L7.12744 37.9153ZM7.66639 39.2075C7.46589 39.6949 6.89829 39.9495 6.38025 39.7314L7.90217 36.0323C6.35604 35.3813 4.60815 36.1282 3.97977 37.6555L7.66639 39.2075ZM6.38025 39.7314C5.86221 39.5133 5.6408 38.9265 5.8413 38.4392L9.52791 39.9912C10.1563 38.4639 9.44831 36.6832 7.90217 36.0323L6.38025 39.7314Z" fill="black" mask="url(#path-7-inside-3_1_9392)"/>
<path d="M31.648 50.2378C31.5808 51.2236 32.1722 53.0525 35.0757 52.4814" stroke="black" stroke-width="2" strokeLinecap="round"/>
<path d="M50.9905 34.6776C50.17 34.1435 48.3974 33.5914 47.871 35.6559" stroke="black" stroke-width="2" strokeLinecap="round"/>
<path d="M40.9084 17.4566C40.0879 16.9226 38.3154 16.3705 37.789 18.435" stroke="black" stroke-width="2" strokeLinecap="round"/>
<path d="M27.8501 29.3343C27.1278 29.9977 26.1418 31.5868 27.9769 32.6355" stroke="black" stroke-width="2" strokeLinecap="round"/>
<path d="M62.1915 19.585C62.4891 18.6451 62.5575 16.7703 60.4499 16.7902" stroke="black" stroke-width="2" strokeLinecap="round"/>
<ellipse cx="51.2061" cy="22.3966" rx="3.02446" ry="3.05945" fill="black"/>
<path d="M67.7399 29.6369C68.825 31.2834 67.6382 32.6222 66.8282 33.1465C66.7647 33.1876 66.6951 33.2191 66.6215 33.237C65.0505 33.6187 63.6064 31.5396 63.6064 30.0448C63.6065 28.8041 66.3285 27.4952 67.7399 29.6369Z" fill="black"/>
<path d="M58.8682 38.6119C57.981 36.4907 54.6003 37.7281 53.0209 38.6119C51.7103 39.2277 52.0127 41.4674 53.6258 43.303C54.9162 44.7716 56.5158 44.1189 57.1543 43.609C58.0952 42.8271 59.7553 40.7331 58.8682 38.6119Z" fill="black"/>
<path d="M5.85665 41.8055C5.21042 40.2701 2.74791 41.1658 1.59743 41.8055C0.642774 42.2513 0.863078 43.8724 2.03804 45.2011C2.978 46.2641 4.14317 45.7917 4.60826 45.4226C5.29365 44.8567 6.50288 43.341 5.85665 41.8055Z" stroke="black" stroke-width="2" strokeLinecap="round"/>
<path d="M45.4597 49.2181C40.9432 47.668 40.2845 51.6997 40.5198 53.9093C40.8222 55.337 42.4353 55.541 43.4434 55.2351C45.5678 54.5904 51.1054 51.1558 45.4597 49.2181Z" fill="black"/>
<ellipse cx="2.96295" cy="3.45694" rx="2.96295" ry="3.45694" transform="matrix(0.855131 0.518411 -0.509711 0.860345 29.728 36.8779)" fill="black"/>
<path d="M38.503 29.1277C39.4708 27.8223 37.8981 26.0682 36.9907 25.3544C36.0834 24.6406 34.8333 24.8649 33.8654 26.1702C32.7565 27.6659 37.2932 30.7594 38.503 29.1277Z" fill="black"/>
<path d="M19.2473 18.9293C16.4245 18.2766 15.786 19.8811 15.8196 20.7649C16.0213 23.8244 20.558 24.4363 21.6669 23.6204C22.4361 23.0546 22.7759 19.7451 19.2473 18.9293Z" fill="black"/>
<path d="M36.6887 6.79381C35.6402 4.67259 33.2946 5.02613 32.2528 5.46805C28.7041 6.61025 29.3291 8.52749 30.1357 9.13938C31.3455 10.1252 34.2288 12.0153 36.0838 11.6889C38.4026 11.281 37.9993 9.44533 36.6887 6.79381Z" fill="black"/>
<path d="M56.9526 54.9293C57.7592 53.5016 60.2795 51.0744 65.1187 49.9322C66.0596 49.7963 67.9818 48.5657 68.1431 44.7312C68.3448 39.938 73.5872 32.9013 69.3529 28.1082C67.5382 26.054 68.4456 23.2131 67.5382 17.7061" stroke="black" stroke-width="2" strokeLinecap="round"/>
<path d="M66.7317 16.176C65.1523 14.2383 60.6626 9.8939 55.3396 8.01743C48.7031 5.67797 55.8064 4.55591 44.14 4.75246C44.0817 4.75344 44.0196 4.76029 43.9618 4.76836C43.0191 4.90008 40.5103 4.51266 37.2615 1.95295C37.2163 1.91728 37.1682 1.88406 37.1155 1.86091C36.6002 1.63502 35.1745 1.43154 32.9586 2.2045C30.6196 3.02036 24.0532 5.46791 21.0623 6.58971C20.4238 6.92965 19.0057 8.05825 18.4411 9.85312C17.7354 12.0967 5.94004 23.5187 9.56939 28.9237" stroke="black" stroke-width="2" strokeLinecap="round"/>
<path d="M10.4766 30.1479C11.9081 30.3328 14.6207 31.389 15.056 34.1367C15.1367 34.6459 15.5066 35.0842 16.0076 35.2058C18.825 35.8899 22.6443 38.4009 20.812 44.4598C20.7215 44.7587 20.765 45.0842 20.9156 45.3578C21.7324 46.8417 22.3667 49.4457 20.6722 51.7381C20.126 52.4771 20.4164 53.8415 21.291 54.1238C23.3724 54.7957 25.8396 55.9845 27.2659 57.8325C27.553 58.2045 28.0336 58.3928 28.4953 58.3057C30.4139 57.9442 33.949 57.9771 37.2934 60.2325C42.1326 63.4959 42.3342 60.0286 48.6856 60.7424C53.7667 61.3135 55.7763 58.3289 56.1459 56.7652" stroke="black" stroke-width="2" strokeLinecap="round"/>
</svg>