<svg width="17" height="17" viewBox="0 0 17 17" fill="none" xmlns="http://www.w3.org/2000/svg">
<g clip-path="url(#clip0_1_8712)">
<path d="M0.5 0.5H16.5V16.5H0.5V0.5Z" fill="#012169"/>
<path d="M16.5 0.5V2.5L10.5625 8.5L16.5 14.3438V16.5H14.4062L8.4375 10.625L2.625 16.5H0.5V14.375L6.3125 8.53125L0.5 2.8125V0.5H2.4375L8.4375 6.375L14.25 0.5H16.5Z" fill="white"/>
<path d="M6.25 10.625L6.59375 11.6875L1.8125 16.5H0.5V16.4062L6.25 10.625ZM10.125 10.25L11.8125 10.5L16.5 15.0938V16.5L10.125 10.25ZM16.5 0.5L10.5 6.625L10.375 5.25L15.0625 0.5H16.5ZM0.5 0.53125L6.53125 6.4375L4.6875 6.1875L0.5 2.03125V0.53125Z" fill="#C8102E"/>
<path d="M6 0.5V16.5H11V0.5H6ZM0.5 6V11H16.5V6H0.5Z" fill="white"/>
<path d="M0.5 7V10H16.5V7H0.5ZM7 0.5V16.5H10V0.5H7Z" fill="#C8102E"/>
</g>
<defs>
<clipPath id="clip0_1_8712">
<rect x="0.5" y="0.5" width="16" height="16" rx="8" fill="white"/>
</clipPath>
</defs>
</svg>
