<svg width="14" height="14" viewBox="0 0 14 14" fill="none" xmlns="http://www.w3.org/2000/svg">
<g clipPath="url(#clip0_1_8349)">
<path d="M7.1847 1.79111C7.12687 1.76419 7.06386 1.75024 7.00007 1.75024C6.93629 1.75024 6.87327 1.76419 6.81545 1.79111L0.252945 4.85361C0.175668 4.88968 0.110617 4.94755 0.0657927 5.0201C0.0209688 5.09265 -0.00167332 5.17672 0.000650832 5.26197C0.00297498 5.34722 0.0301641 5.42993 0.0788744 5.49994C0.127585 5.56994 0.195692 5.62418 0.27482 5.65598L6.83732 8.28098C6.94178 8.32285 7.05836 8.32285 7.16282 8.28098L12.2501 6.24748V11.375C12.018 11.375 11.7954 11.4672 11.6314 11.6313C11.4673 11.7954 11.3751 12.0179 11.3751 12.25V14H14.0001V12.25C14.0001 12.0179 13.9079 11.7954 13.7438 11.6313C13.5797 11.4672 13.3571 11.375 13.1251 11.375V5.89661L13.7253 5.65598C13.8044 5.62418 13.8726 5.56994 13.9213 5.49994C13.97 5.42993 13.9972 5.34722 13.9995 5.26197C14.0018 5.17672 13.9792 5.09265 13.9343 5.0201C13.8895 4.94755 13.8245 4.88968 13.7472 4.85361L7.1847 1.79111V1.79111ZM7.00007 7.40248L1.53832 5.21936L7.00007 2.67048L12.4618 5.21936L7.00007 7.40248Z" fill="white"/>
<path d="M3.65396 7.90309C3.59762 7.88186 3.53751 7.8725 3.47739 7.87557C3.41727 7.87864 3.35843 7.89409 3.30455 7.92095C3.25067 7.94781 3.20292 7.98549 3.16427 8.03165C3.12563 8.07781 3.09692 8.13145 3.07996 8.18921L2.64246 9.67671C2.61181 9.78114 2.62119 9.89324 2.66876 9.99112C2.71633 10.089 2.79867 10.1657 2.89971 10.2061L6.83721 11.7811C6.94167 11.823 7.05825 11.823 7.16271 11.7811L11.1002 10.2061C11.2012 10.1657 11.2836 10.089 11.3312 9.99112C11.3787 9.89324 11.3881 9.78114 11.3575 9.67671L10.92 8.18921C10.903 8.13145 10.8743 8.07781 10.8356 8.03165C10.797 7.98549 10.7492 7.94781 10.6954 7.92095C10.6415 7.89409 10.5826 7.87864 10.5225 7.87557C10.4624 7.8725 10.4023 7.88186 10.346 7.90309L6.99996 9.15784L3.65396 7.90309ZM3.59446 9.54196L3.78696 8.88746L6.84596 10.0346C6.94523 10.0719 7.05469 10.0719 7.15396 10.0346L10.213 8.88746L10.4055 9.54196L6.99996 10.9026L3.59446 9.54109V9.54196Z" fill="white"/>
</g>
<defs>
<clipPath id="clip0_1_8349">
<rect width="14" height="14" fill="white"/>
</clipPath>
</defs>
</svg>
