<svg width="13" height="13" viewBox="0 0 13 13" fill="none" xmlns="http://www.w3.org/2000/svg">
<path d="M6.50016 2.93604L5.96241 2.38329C4.70016 1.08579 2.38567 1.53354 1.55017 3.16479C1.15792 3.93204 1.06942 5.03979 1.78567 6.45354C2.47567 7.81479 3.91117 9.44529 6.50016 11.2213C9.08916 9.44529 10.5239 7.81479 11.2147 6.45354C11.9309 5.03904 11.8432 3.93204 11.4502 3.16479C10.6147 1.53354 8.30016 1.08504 7.03791 2.38254L6.50016 2.93604ZM6.50016 12.125C-4.99958 4.52604 2.95942 -1.40496 6.36817 1.73229C6.41317 1.77354 6.45742 1.81629 6.50016 1.86054C6.54248 1.81633 6.58651 1.77379 6.63216 1.73304C10.0402 -1.40646 17.9999 4.52529 6.50016 12.125Z" fill="#5F5F5F"/>
</svg>