<svg width="47" height="47" viewBox="0 0 47 47" fill="none" xmlns="http://www.w3.org/2000/svg">
<circle cx="23.5" cy="23.5" r="20" stroke="#F3F4F6" stroke-width="6"/>
<path d="M23.5 3.48983C23.5 1.83859 24.8442 0.48 26.4815 0.694053C29.6734 1.11135 32.7538 2.19571 35.5175 3.88928C39.1341 6.10557 42.0675 9.27882 43.9931 13.0582C45.9188 16.8376 46.7619 21.0759 46.4291 25.3046C46.1748 28.5358 45.2415 31.6653 43.7029 34.4929C42.9137 35.9433 41.0244 36.2323 39.6886 35.2617C38.3527 34.2911 38.084 32.4288 38.8062 30.9439C39.7334 29.0374 40.3002 26.9663 40.4679 24.8354C40.7141 21.7061 40.0903 18.5697 38.6652 15.7729C37.2402 12.9761 35.0695 10.6279 32.3931 8.98778C30.5706 7.87093 28.5619 7.1121 26.4745 6.7416C24.8487 6.45301 23.5 5.14108 23.5 3.48983Z" fill="#3B82F6"/>
</svg>
