
<svg width="241" height="32" viewBox="0 0 241 32" fill="none" xmlns="http://www.w3.org/2000/svg">
<path d="M37.5028 5.59091V24.5H33.5696V5.59091H37.5028ZM46.2813 24.777C44.8471 24.777 43.6068 24.4723 42.5604 23.8629C41.5201 23.2474 40.7169 22.3918 40.1506 21.2962C39.5843 20.1944 39.3011 18.9171 39.3011 17.4645C39.3011 15.9995 39.5843 14.7192 40.1506 13.6236C40.7169 12.5218 41.5201 11.6662 42.5604 11.0568C43.6068 10.4413 44.8471 10.1335 46.2813 10.1335C47.7154 10.1335 48.9527 10.4413 49.9929 11.0568C51.0393 11.6662 51.8457 12.5218 52.4119 13.6236C52.9782 14.7192 53.2614 15.9995 53.2614 17.4645C53.2614 18.9171 52.9782 20.1944 52.4119 21.2962C51.8457 22.3918 51.0393 23.2474 49.9929 23.8629C48.9527 24.4723 47.7154 24.777 46.2813 24.777ZM46.2997 21.7301C46.9522 21.7301 47.4969 21.5455 47.934 21.1761C48.371 20.8007 48.7003 20.2898 48.9219 19.6435C49.1496 18.9972 49.2635 18.2616 49.2635 17.4368C49.2635 16.612 49.1496 15.8764 48.9219 15.2301C48.7003 14.5838 48.371 14.0729 47.934 13.6974C47.4969 13.322 46.9522 13.1342 46.2997 13.1342C45.6411 13.1342 45.0871 13.322 44.6378 13.6974C44.1946 14.0729 43.8591 14.5838 43.6314 15.2301C43.4098 15.8764 43.299 16.612 43.299 17.4368C43.299 18.2616 43.4098 18.9972 43.6314 19.6435C43.8591 20.2898 44.1946 20.8007 44.6378 21.1761C45.0871 21.5455 45.6411 21.7301 46.2997 21.7301ZM61.4281 30.1136C60.154 30.1136 59.0614 29.9382 58.1504 29.5874C57.2456 29.2427 56.5254 28.7718 55.9899 28.1747C55.4544 27.5777 55.1066 26.9067 54.9466 26.1619L58.5844 25.6726C58.6951 25.9557 58.8706 26.2204 59.1106 26.4666C59.3507 26.7128 59.6677 26.9098 60.0616 27.0575C60.4617 27.2114 60.948 27.2884 61.5204 27.2884C62.376 27.2884 63.0808 27.0791 63.6348 26.6605C64.1949 26.2481 64.475 25.5556 64.475 24.5831V21.9886H64.3088C64.1364 22.3826 63.8779 22.755 63.5332 23.1058C63.1885 23.4567 62.7453 23.7429 62.2037 23.9645C61.662 24.1861 61.0157 24.2969 60.2648 24.2969C59.1999 24.2969 58.2304 24.0507 57.3564 23.5582C56.4885 23.0597 55.796 22.2995 55.279 21.2777C54.7681 20.2498 54.5126 18.951 54.5126 17.3814C54.5126 15.7749 54.7742 14.433 55.2974 13.3558C55.8206 12.2786 56.5162 11.4723 57.3841 10.9368C58.2581 10.4013 59.2153 10.1335 60.2555 10.1335C61.0496 10.1335 61.7143 10.2689 62.2498 10.5398C62.7853 10.8045 63.2162 11.1368 63.5425 11.5369C63.8748 11.9309 64.1303 12.3187 64.3088 12.7003H64.4565V10.3182H68.3621V24.6385C68.3621 25.8449 68.0666 26.8544 67.4757 27.6669C66.8848 28.4794 66.0661 29.0888 65.0197 29.495C63.9795 29.9074 62.7823 30.1136 61.4281 30.1136ZM61.5112 21.3423C62.1452 21.3423 62.6807 21.1854 63.1177 20.8714C63.5609 20.5514 63.8995 20.0959 64.1334 19.505C64.3734 18.9079 64.4934 18.1939 64.4934 17.3629C64.4934 16.532 64.3765 15.8118 64.1426 15.2024C63.9087 14.5869 63.5702 14.1098 63.127 13.7713C62.6838 13.4328 62.1452 13.2635 61.5112 13.2635C60.8649 13.2635 60.3202 13.4389 59.877 13.7898C59.4338 14.1345 59.0983 14.6146 58.8706 15.2301C58.6428 15.8456 58.529 16.5566 58.529 17.3629C58.529 18.1816 58.6428 18.8894 58.8706 19.4865C59.1045 20.0774 59.4399 20.536 59.877 20.8622C60.3202 21.1823 60.8649 21.3423 61.5112 21.3423ZM77.1197 24.777C75.6855 24.777 74.4452 24.4723 73.3988 23.8629C72.3586 23.2474 71.5553 22.3918 70.989 21.2962C70.4227 20.1944 70.1396 18.9171 70.1396 17.4645C70.1396 15.9995 70.4227 14.7192 70.989 13.6236C71.5553 12.5218 72.3586 11.6662 73.3988 11.0568C74.4452 10.4413 75.6855 10.1335 77.1197 10.1335C78.5539 10.1335 79.7911 10.4413 80.8313 11.0568C81.8777 11.6662 82.6841 12.5218 83.2504 13.6236C83.8167 14.7192 84.0998 15.9995 84.0998 17.4645C84.0998 18.9171 83.8167 20.1944 83.2504 21.2962C82.6841 22.3918 81.8777 23.2474 80.8313 23.8629C79.7911 24.4723 78.5539 24.777 77.1197 24.777ZM77.1382 21.7301C77.7906 21.7301 78.3354 21.5455 78.7724 21.1761C79.2094 20.8007 79.5387 20.2898 79.7603 19.6435C79.9881 18.9972 80.1019 18.2616 80.1019 17.4368C80.1019 16.612 79.9881 15.8764 79.7603 15.2301C79.5387 14.5838 79.2094 14.0729 78.7724 13.6974C78.3354 13.322 77.7906 13.1342 77.1382 13.1342C76.4795 13.1342 75.9256 13.322 75.4762 13.6974C75.033 14.0729 74.6976 14.5838 74.4698 15.2301C74.2482 15.8764 74.1375 16.612 74.1375 17.4368C74.1375 18.2616 74.2482 18.9972 74.4698 19.6435C74.6976 20.2898 75.033 20.8007 75.4762 21.1761C75.9256 21.5455 76.4795 21.7301 77.1382 21.7301ZM96.7076 24.5V27.4822H84.2893V24.5H96.7076ZM98.6813 29.8182V10.3182H102.559V12.7003H102.735C102.907 12.3187 103.156 11.9309 103.482 11.5369C103.815 11.1368 104.246 10.8045 104.775 10.5398C105.311 10.2689 105.975 10.1335 106.769 10.1335C107.803 10.1335 108.758 10.4044 109.632 10.946C110.506 11.4815 111.204 12.291 111.727 13.3743C112.251 14.4515 112.512 15.8026 112.512 17.4276C112.512 19.0095 112.257 20.3452 111.746 21.4347C111.241 22.518 110.552 23.3397 109.678 23.8999C108.81 24.4538 107.837 24.7308 106.76 24.7308C105.997 24.7308 105.348 24.6046 104.812 24.3523C104.283 24.0999 103.849 23.7829 103.51 23.4013C103.172 23.0135 102.913 22.6226 102.735 22.2287H102.615V29.8182H98.6813ZM102.531 17.4091C102.531 18.2524 102.648 18.9879 102.882 19.6158C103.116 20.2436 103.455 20.733 103.898 21.0838C104.341 21.4285 104.88 21.6009 105.514 21.6009C106.154 21.6009 106.696 21.4254 107.139 21.0746C107.582 20.7176 107.917 20.2251 108.145 19.5973C108.379 18.9633 108.496 18.2339 108.496 17.4091C108.496 16.5904 108.382 15.8703 108.154 15.2486C107.927 14.6269 107.591 14.1406 107.148 13.7898C106.705 13.4389 106.16 13.2635 105.514 13.2635C104.874 13.2635 104.332 13.4328 103.889 13.7713C103.452 14.1098 103.116 14.59 102.882 15.2116C102.648 15.8333 102.531 16.5658 102.531 17.4091ZM118.288 5.59091V24.5H114.354V5.59091H118.288ZM124.702 24.7678C123.798 24.7678 122.991 24.6108 122.283 24.2969C121.576 23.9768 121.015 23.5059 120.603 22.8842C120.197 22.2564 119.994 21.4747 119.994 20.5391C119.994 19.7512 120.138 19.0895 120.428 18.554C120.717 18.0185 121.111 17.5876 121.609 17.2614C122.108 16.9351 122.674 16.6889 123.308 16.5227C123.948 16.3565 124.619 16.2396 125.321 16.1719C126.146 16.0857 126.811 16.0057 127.315 15.9318C127.82 15.8518 128.186 15.7348 128.414 15.581C128.642 15.4271 128.756 15.1993 128.756 14.8977V14.8423C128.756 14.2576 128.571 13.8052 128.202 13.4851C127.839 13.165 127.322 13.005 126.651 13.005C125.943 13.005 125.38 13.1619 124.961 13.4759C124.542 13.7836 124.265 14.1714 124.13 14.6392L120.492 14.3438C120.677 13.482 121.04 12.7372 121.582 12.1094C122.123 11.4754 122.822 10.9891 123.678 10.6506C124.539 10.3059 125.537 10.1335 126.669 10.1335C127.457 10.1335 128.211 10.2259 128.931 10.4105C129.657 10.5952 130.301 10.8814 130.861 11.2692C131.427 11.657 131.873 12.1555 132.2 12.7649C132.526 13.3681 132.689 14.0914 132.689 14.9347V24.5H128.959V22.5334H128.848C128.62 22.9766 128.316 23.3674 127.934 23.706C127.552 24.0384 127.094 24.3 126.558 24.4908C126.023 24.6754 125.404 24.7678 124.702 24.7678ZM125.829 22.0533C126.407 22.0533 126.918 21.9394 127.362 21.7116C127.805 21.4777 128.153 21.1638 128.405 20.7699C128.657 20.3759 128.783 19.9297 128.783 19.4311V17.9261C128.66 18.0062 128.491 18.08 128.276 18.1477C128.066 18.2093 127.829 18.2678 127.565 18.3232C127.3 18.3724 127.035 18.4186 126.771 18.4616C126.506 18.4986 126.266 18.5324 126.05 18.5632C125.589 18.6309 125.186 18.7386 124.841 18.8864C124.496 19.0341 124.229 19.2341 124.038 19.4865C123.847 19.7327 123.751 20.0405 123.751 20.4098C123.751 20.9453 123.945 21.3546 124.333 21.6378C124.727 21.9148 125.226 22.0533 125.829 22.0533ZM141.368 24.777C139.915 24.777 138.666 24.4692 137.62 23.8537C136.579 23.232 135.779 22.3703 135.219 21.2685C134.665 20.1667 134.388 18.8987 134.388 17.4645C134.388 16.0118 134.668 14.7377 135.228 13.642C135.795 12.5402 136.598 11.6816 137.638 11.0661C138.678 10.4444 139.915 10.1335 141.35 10.1335C142.587 10.1335 143.67 10.3582 144.6 10.8075C145.529 11.2569 146.265 11.8878 146.806 12.7003C147.348 13.5128 147.647 14.4669 147.702 15.5625H143.99C143.886 14.8546 143.609 14.2853 143.159 13.8544C142.716 13.4174 142.134 13.1989 141.414 13.1989C140.805 13.1989 140.272 13.3651 139.817 13.6974C139.368 14.0237 139.017 14.5007 138.764 15.1286C138.512 15.7564 138.386 16.5166 138.386 17.4091C138.386 18.3139 138.509 19.0833 138.755 19.7173C139.008 20.3513 139.362 20.8345 139.817 21.1669C140.272 21.4993 140.805 21.6655 141.414 21.6655C141.864 21.6655 142.267 21.5732 142.624 21.3885C142.987 21.2038 143.286 20.9361 143.519 20.5852C143.759 20.2282 143.916 19.8004 143.99 19.3018H147.702C147.64 20.3852 147.345 21.3393 146.816 22.1641C146.292 22.9827 145.569 23.6229 144.646 24.0845C143.723 24.5462 142.63 24.777 141.368 24.777ZM155.903 24.777C154.444 24.777 153.189 24.4815 152.136 23.8906C151.09 23.2936 150.284 22.4503 149.717 21.3608C149.151 20.2652 148.868 18.9695 148.868 17.4737C148.868 16.0149 149.151 14.7346 149.717 13.6328C150.284 12.531 151.081 11.6723 152.109 11.0568C153.143 10.4413 154.355 10.1335 155.746 10.1335C156.682 10.1335 157.553 10.2843 158.359 10.5859C159.172 10.8814 159.88 11.3277 160.483 11.9247C161.092 12.5218 161.566 13.2727 161.905 14.1776C162.243 15.0762 162.413 16.1288 162.413 17.3352V18.4155H150.437V15.978H158.71C158.71 15.4117 158.587 14.91 158.341 14.473C158.095 14.036 157.753 13.6944 157.316 13.4482C156.885 13.1958 156.383 13.0696 155.811 13.0696C155.214 13.0696 154.685 13.2081 154.223 13.4851C153.767 13.7559 153.41 14.1222 153.152 14.5838C152.893 15.0393 152.761 15.5471 152.755 16.1072V18.4247C152.755 19.1264 152.884 19.7327 153.143 20.2436C153.407 20.7545 153.78 21.1484 154.26 21.4254C154.74 21.7024 155.309 21.8409 155.968 21.8409C156.405 21.8409 156.805 21.7794 157.168 21.6562C157.531 21.5331 157.842 21.3485 158.101 21.1023C158.359 20.8561 158.556 20.5545 158.692 20.1974L162.329 20.4375C162.145 21.3116 161.766 22.0748 161.194 22.7273C160.627 23.3736 159.895 23.8783 158.996 24.2415C158.104 24.5985 157.073 24.777 155.903 24.777ZM168.133 16.3011V24.5H164.199V5.59091H168.022V12.8203H168.188C168.508 11.9832 169.025 11.3277 169.739 10.8537C170.453 10.3736 171.349 10.1335 172.426 10.1335C173.411 10.1335 174.269 10.349 175.002 10.7798C175.74 11.2045 176.313 11.817 176.719 12.6172C177.132 13.4112 177.335 14.3622 177.329 15.4702V24.5H173.395V16.1719C173.401 15.2978 173.18 14.6177 172.731 14.1314C172.287 13.6451 171.666 13.402 170.865 13.402C170.33 13.402 169.856 13.5159 169.444 13.7436C169.037 13.9714 168.717 14.3037 168.483 14.7408C168.256 15.1716 168.139 15.6918 168.133 16.3011ZM186.052 24.777C184.617 24.777 183.377 24.4723 182.331 23.8629C181.29 23.2474 180.487 22.3918 179.921 21.2962C179.355 20.1944 179.071 18.9171 179.071 17.4645C179.071 15.9995 179.355 14.7192 179.921 13.6236C180.487 12.5218 181.29 11.6662 182.331 11.0568C183.377 10.4413 184.617 10.1335 186.052 10.1335C187.486 10.1335 188.723 10.4413 189.763 11.0568C190.81 11.6662 191.616 12.5218 192.182 13.6236C192.749 14.7192 193.032 15.9995 193.032 17.4645C193.032 18.9171 192.749 20.1944 192.182 21.2962C191.616 22.3918 190.81 23.2474 189.763 23.8629C188.723 24.4723 187.486 24.777 186.052 24.777ZM186.07 21.7301C186.722 21.7301 187.267 21.5455 187.704 21.1761C188.141 20.8007 188.471 20.2898 188.692 19.6435C188.92 18.9972 189.034 18.2616 189.034 17.4368C189.034 16.612 188.92 15.8764 188.692 15.2301C188.471 14.5838 188.141 14.0729 187.704 13.6974C187.267 13.322 186.722 13.1342 186.07 13.1342C185.411 13.1342 184.857 13.322 184.408 13.6974C183.965 14.0729 183.629 14.5838 183.402 15.2301C183.18 15.8764 183.069 16.612 183.069 17.4368C183.069 18.2616 183.18 18.9972 183.402 19.6435C183.629 20.2898 183.965 20.8007 184.408 21.1761C184.857 21.5455 185.411 21.7301 186.07 21.7301ZM198.742 5.59091V24.5H194.809V5.59091H198.742ZM206.339 24.7308C205.262 24.7308 204.286 24.4538 203.412 23.8999C202.544 23.3397 201.855 22.518 201.344 21.4347C200.839 20.3452 200.587 19.0095 200.587 17.4276C200.587 15.8026 200.849 14.4515 201.372 13.3743C201.895 12.291 202.59 11.4815 203.458 10.946C204.332 10.4044 205.29 10.1335 206.33 10.1335C207.124 10.1335 207.786 10.2689 208.315 10.5398C208.85 10.8045 209.281 11.1368 209.608 11.5369C209.94 11.9309 210.192 12.3187 210.365 12.7003H210.485V5.59091H214.409V24.5H210.531V22.2287H210.365C210.18 22.6226 209.918 23.0135 209.58 23.4013C209.247 23.7829 208.813 24.0999 208.278 24.3523C207.749 24.6046 207.102 24.7308 206.339 24.7308ZM207.585 21.6009C208.219 21.6009 208.755 21.4285 209.192 21.0838C209.635 20.733 209.974 20.2436 210.208 19.6158C210.448 18.9879 210.568 18.2524 210.568 17.4091C210.568 16.5658 210.451 15.8333 210.217 15.2116C209.983 14.59 209.644 14.1098 209.201 13.7713C208.758 13.4328 208.219 13.2635 207.585 13.2635C206.939 13.2635 206.394 13.4389 205.951 13.7898C205.508 14.1406 205.173 14.6269 204.945 15.2486C204.717 15.8703 204.603 16.5904 204.603 17.4091C204.603 18.2339 204.717 18.9633 204.945 19.5973C205.179 20.2251 205.514 20.7176 205.951 21.0746C206.394 21.4254 206.939 21.6009 207.585 21.6009ZM223.326 24.777C221.867 24.777 220.611 24.4815 219.559 23.8906C218.512 23.2936 217.706 22.4503 217.139 21.3608C216.573 20.2652 216.29 18.9695 216.29 17.4737C216.29 16.0149 216.573 14.7346 217.139 13.6328C217.706 12.531 218.503 11.6723 219.531 11.0568C220.565 10.4413 221.778 10.1335 223.169 10.1335C224.104 10.1335 224.975 10.2843 225.782 10.5859C226.594 10.8814 227.302 11.3277 227.905 11.9247C228.514 12.5218 228.988 13.2727 229.327 14.1776C229.666 15.0762 229.835 16.1288 229.835 17.3352V18.4155H217.86V15.978H226.132C226.132 15.4117 226.009 14.91 225.763 14.473C225.517 14.036 225.175 13.6944 224.738 13.4482C224.307 13.1958 223.806 13.0696 223.233 13.0696C222.636 13.0696 222.107 13.2081 221.645 13.4851C221.19 13.7559 220.833 14.1222 220.574 14.5838C220.316 15.0393 220.183 15.5471 220.177 16.1072V18.4247C220.177 19.1264 220.306 19.7327 220.565 20.2436C220.83 20.7545 221.202 21.1484 221.682 21.4254C222.162 21.7024 222.732 21.8409 223.39 21.8409C223.827 21.8409 224.227 21.7794 224.59 21.6562C224.954 21.5331 225.264 21.3485 225.523 21.1023C225.782 20.8561 225.978 20.5545 226.114 20.1974L229.752 20.4375C229.567 21.3116 229.188 22.0748 228.616 22.7273C228.05 23.3736 227.317 23.8783 226.419 24.2415C225.526 24.5985 224.495 24.777 223.326 24.777ZM231.622 24.5V10.3182H235.435V12.7926H235.582C235.841 11.9124 236.275 11.2476 236.884 10.7983C237.494 10.3428 238.195 10.1151 238.989 10.1151C239.186 10.1151 239.399 10.1274 239.627 10.152C239.854 10.1766 240.054 10.2105 240.227 10.2536V13.7436C240.042 13.6882 239.787 13.639 239.46 13.5959C239.134 13.5528 238.836 13.5312 238.565 13.5312C237.986 13.5312 237.469 13.6574 237.014 13.9098C236.564 14.156 236.207 14.5007 235.943 14.9439C235.684 15.3871 235.555 15.898 235.555 16.4766V24.5H231.622Z" fill="#2563EB"/>
<path d="M1 28.5V15.5C1 8.87258 6.37258 3.5 13 3.5C19.6274 3.5 25 8.87258 25 15.5C25 22.1274 19.6274 27.5 13 27.5H12" stroke="#2563EB" stroke-width="2"/>
<path d="M5 28.5V15.66C5 11.1534 8.58172 7.5 13 7.5C17.4183 7.5 21 11.1534 21 15.66C21 20.1666 17.4183 23.82 13 23.82H12" stroke="#2563EB" stroke-width="2"/>
<circle cx="13" cy="15.5215" r="5" fill="#2563EB"/>
</svg>
