<svg width="11" height="11" viewBox="0 0 11 11" fill="none" xmlns="http://www.w3.org/2000/svg">
<g clip-path="url(#clip0_1_7974)">
<path d="M8.93742 1.12495C8.68878 1.12495 8.45032 1.22372 8.27451 1.39954C8.09869 1.57535 7.99992 1.81381 7.99992 2.06245C7.99992 2.31109 8.09869 2.54955 8.27451 2.72536C8.45032 2.90118 8.68878 2.99995 8.93742 2.99995C9.18606 2.99995 9.42452 2.90118 9.60033 2.72536C9.77615 2.54955 9.87492 2.31109 9.87492 2.06245C9.87492 1.81381 9.77615 1.57535 9.60033 1.39954C9.42452 1.22372 9.18606 1.12495 8.93742 1.12495ZM7.37492 2.06245C7.37488 1.69585 7.50374 1.3409 7.73896 1.05971C7.97419 0.778519 8.3008 0.588992 8.66165 0.524288C9.0225 0.459584 9.39461 0.523823 9.71288 0.705766C10.0311 0.887709 10.2753 1.17577 10.4026 1.51955C10.53 1.86333 10.5324 2.24094 10.4094 2.58631C10.2865 2.93168 10.046 3.22282 9.73005 3.40879C9.41411 3.59476 9.04285 3.66372 8.68121 3.60361C8.31957 3.54349 7.99057 3.35813 7.7518 3.07995L3.55305 5.02995C3.64957 5.33585 3.64957 5.66405 3.55305 5.96995L7.7518 7.91995C8.0042 7.62641 8.35659 7.43702 8.74067 7.38848C9.12475 7.33995 9.51317 7.43573 9.83066 7.65726C10.1481 7.87879 10.3721 8.2103 10.4591 8.58753C10.5461 8.96476 10.4899 9.36086 10.3015 9.69906C10.1131 10.0373 9.80589 10.2935 9.43935 10.4181C9.0728 10.5426 8.67306 10.5267 8.3176 10.3733C7.96213 10.22 7.67625 9.94012 7.51537 9.588C7.35448 9.23587 7.33005 8.83656 7.4468 8.46745L3.24805 6.51745C3.04019 6.75968 2.76314 6.93245 2.45416 7.01251C2.14518 7.09256 1.81909 7.07607 1.51976 6.96525C1.22043 6.85443 0.962219 6.6546 0.779864 6.39263C0.597508 6.13067 0.499756 5.81914 0.499756 5.49995C0.499756 5.18077 0.597508 4.86924 0.779864 4.60727C0.962219 4.34531 1.22043 4.14547 1.51976 4.03465C1.81909 3.92383 2.14518 3.90734 2.45416 3.9874C2.76314 4.06746 3.04019 4.24022 3.24805 4.48245L7.4468 2.53245C7.399 2.38037 7.37476 2.22187 7.37492 2.06245V2.06245ZM2.06242 4.56245C1.81378 4.56245 1.57532 4.66122 1.39951 4.83704C1.22369 5.01285 1.12492 5.25131 1.12492 5.49995C1.12492 5.74859 1.22369 5.98705 1.39951 6.16286C1.57532 6.33868 1.81378 6.43745 2.06242 6.43745C2.31106 6.43745 2.54952 6.33868 2.72533 6.16286C2.90115 5.98705 2.99992 5.74859 2.99992 5.49995C2.99992 5.25131 2.90115 5.01285 2.72533 4.83704C2.54952 4.66122 2.31106 4.56245 2.06242 4.56245ZM8.93742 7.99995C8.68878 7.99995 8.45032 8.09872 8.27451 8.27454C8.09869 8.45035 7.99992 8.68881 7.99992 8.93745C7.99992 9.18609 8.09869 9.42455 8.27451 9.60036C8.45032 9.77618 8.68878 9.87495 8.93742 9.87495C9.18606 9.87495 9.42452 9.77618 9.60033 9.60036C9.77615 9.42455 9.87492 9.18609 9.87492 8.93745C9.87492 8.68881 9.77615 8.45035 9.60033 8.27454C9.42452 8.09872 9.18606 7.99995 8.93742 7.99995Z" fill="#6B7280"/>
</g>
<defs>
<clipPath id="clip0_1_7974">
<rect width="10" height="10" fill="white" transform="translate(0.5 0.5)"/>
</clipPath>
</defs>
</svg>
