<svg width="12" height="7" viewBox="0 0 12 7" fill="none" xmlns="http://www.w3.org/2000/svg">
<path d="M4.25 6.1875C4.25 6.07147 4.29609 5.96019 4.37814 5.87814C4.46019 5.79609 4.57147 5.75 4.6875 5.75H7.3125C7.42853 5.75 7.53981 5.79609 7.62186 5.87814C7.70391 5.96019 7.75 6.07147 7.75 6.1875C7.75 6.30353 7.70391 6.41481 7.62186 6.49686C7.53981 6.57891 7.42853 6.625 7.3125 6.625H4.6875C4.57147 6.625 4.46019 6.57891 4.37814 6.49686C4.29609 6.41481 4.25 6.30353 4.25 6.1875ZM2.5 3.5625C2.5 3.44647 2.54609 3.33519 2.62814 3.25314C2.71019 3.17109 2.82147 3.125 2.9375 3.125H9.0625C9.17853 3.125 9.28981 3.17109 9.37186 3.25314C9.45391 3.33519 9.5 3.44647 9.5 3.5625C9.5 3.67853 9.45391 3.78981 9.37186 3.87186C9.28981 3.95391 9.17853 4 9.0625 4H2.9375C2.82147 4 2.71019 3.95391 2.62814 3.87186C2.54609 3.78981 2.5 3.67853 2.5 3.5625ZM0.75 0.9375C0.75 0.821468 0.796094 0.710188 0.878141 0.628141C0.960188 0.546094 1.07147 0.5 1.1875 0.5H10.8125C10.9285 0.5 11.0398 0.546094 11.1219 0.628141C11.2039 0.710188 11.25 0.821468 11.25 0.9375C11.25 1.05353 11.2039 1.16481 11.1219 1.24686C11.0398 1.32891 10.9285 1.375 10.8125 1.375H1.1875C1.07147 1.375 0.960188 1.32891 0.878141 1.24686C0.796094 1.16481 0.75 1.05353 0.75 0.9375Z" fill="#374151"/>
</svg>
