<svg width="831" height="171" viewBox="0 0 831 171" fill="none" xmlns="http://www.w3.org/2000/svg">
<rect width="301" height="171" rx="25" fill="#0085FF"/>
<path d="M97.877 103.176C97.877 107.528 97.365 111.624 96.341 115.464C95.4023 119.304 93.6957 122.675 91.221 125.576C88.8317 128.392 85.5463 130.653 81.365 132.36C77.269 133.981 72.0637 134.792 65.749 134.792C59.9463 134.792 54.9543 134.109 50.773 132.744C46.5917 131.293 43.1357 129.629 40.405 127.752L47.061 112.264C49.5357 113.715 52.181 114.995 54.997 116.104C57.813 117.213 60.885 117.768 64.213 117.768C69.077 117.768 72.5757 116.573 74.709 114.184C76.8423 111.795 77.909 107.784 77.909 102.152V44.296H97.877V103.176ZM178.811 99.208C178.811 104.499 178.043 109.363 176.507 113.8C174.971 118.152 172.752 121.907 169.851 125.064C166.95 128.136 163.451 130.525 159.355 132.232C155.344 133.939 150.822 134.792 145.787 134.792C140.838 134.792 136.315 133.939 132.219 132.232C128.208 130.525 124.752 128.136 121.851 125.064C118.95 121.907 116.688 118.152 115.067 113.8C113.446 109.363 112.635 104.499 112.635 99.208C112.635 93.9173 113.446 89.096 115.067 84.744C116.774 80.392 119.078 76.68 121.979 73.608C124.966 70.536 128.464 68.1467 132.475 66.44C136.571 64.7333 141.008 63.88 145.787 63.88C150.651 63.88 155.088 64.7333 159.099 66.44C163.195 68.1467 166.694 70.536 169.595 73.608C172.496 76.68 174.758 80.392 176.379 84.744C178 89.096 178.811 93.9173 178.811 99.208ZM159.355 99.208C159.355 93.32 158.16 88.712 155.771 85.384C153.467 81.9707 150.139 80.264 145.787 80.264C141.435 80.264 138.064 81.9707 135.675 85.384C133.286 88.712 132.091 93.32 132.091 99.208C132.091 105.096 133.286 109.789 135.675 113.288C138.064 116.701 141.435 118.408 145.787 118.408C150.139 118.408 153.467 116.701 155.771 113.288C158.16 109.789 159.355 105.096 159.355 99.208ZM236.721 98.824C236.721 86.536 232.198 80.392 223.153 80.392C221.19 80.392 219.228 80.648 217.265 81.16C215.388 81.672 213.852 82.312 212.657 83.08V117.768C213.596 117.939 214.79 118.109 216.241 118.28C217.692 118.365 219.27 118.408 220.977 118.408C226.182 118.408 230.108 116.616 232.753 113.032C235.398 109.448 236.721 104.712 236.721 98.824ZM256.177 99.336C256.177 104.712 255.366 109.576 253.745 113.928C252.209 118.28 249.948 121.992 246.961 125.064C243.974 128.136 240.305 130.525 235.953 132.232C231.601 133.853 226.652 134.664 221.105 134.664C218.801 134.664 216.369 134.536 213.809 134.28C211.334 134.109 208.86 133.853 206.385 133.512C203.996 133.171 201.692 132.787 199.473 132.36C197.254 131.848 195.292 131.336 193.585 130.824V36.744L212.657 33.672V67.208C214.79 66.2693 217.009 65.544 219.313 65.032C221.617 64.52 224.092 64.264 226.737 64.264C231.516 64.264 235.74 65.1173 239.409 66.824C243.078 68.4453 246.15 70.792 248.625 73.864C251.1 76.936 252.977 80.648 254.257 85C255.537 89.2667 256.177 94.0453 256.177 99.336Z" fill="white"/>
<path d="M348.885 121.34C351.965 121.34 354.485 121.107 356.445 120.64C358.498 120.08 360.131 119.38 361.345 118.54C362.558 117.607 363.398 116.533 363.865 115.32C364.331 114.107 364.565 112.753 364.565 111.26C364.565 108.087 363.071 105.473 360.085 103.42C357.098 101.273 351.965 98.9867 344.685 96.56C341.511 95.44 338.338 94.18 335.165 92.78C331.991 91.2867 329.145 89.4667 326.625 87.32C324.105 85.08 322.051 82.42 320.465 79.34C318.878 76.1667 318.085 72.34 318.085 67.86C318.085 63.38 318.925 59.3667 320.605 55.82C322.285 52.18 324.665 49.1 327.745 46.58C330.825 44.06 334.558 42.1467 338.945 40.84C343.331 39.44 348.278 38.74 353.785 38.74C360.318 38.74 365.965 39.44 370.725 40.84C375.485 42.24 379.405 43.78 382.485 45.46L376.185 62.68C373.478 61.28 370.445 60.0667 367.085 59.04C363.818 57.92 359.851 57.36 355.185 57.36C349.958 57.36 346.178 58.1067 343.845 59.6C341.605 61 340.485 63.1933 340.485 66.18C340.485 67.9533 340.905 69.4467 341.745 70.66C342.585 71.8733 343.751 72.9933 345.245 74.02C346.831 74.9533 348.605 75.84 350.565 76.68C352.618 77.4267 354.858 78.22 357.285 79.06C362.325 80.9267 366.711 82.7933 370.445 84.66C374.178 86.4333 377.258 88.5333 379.685 90.96C382.205 93.3867 384.071 96.2333 385.285 99.5C386.498 102.767 387.105 106.733 387.105 111.4C387.105 120.453 383.931 127.5 377.585 132.54C371.238 137.487 361.671 139.96 348.885 139.96C344.591 139.96 340.718 139.68 337.265 139.12C333.811 138.653 330.731 138.047 328.025 137.3C325.411 136.553 323.125 135.76 321.165 134.92C319.298 134.08 317.711 133.287 316.405 132.54L322.565 115.18C325.458 116.767 329.005 118.213 333.205 119.52C337.498 120.733 342.725 121.34 348.885 121.34ZM449.689 101.74C449.689 95.3 448.242 90.1667 445.349 86.34C442.456 82.42 438.162 80.46 432.469 80.46C430.602 80.46 428.876 80.5533 427.289 80.74C425.702 80.8333 424.396 80.9733 423.369 81.16V118.82C424.676 119.66 426.356 120.36 428.409 120.92C430.556 121.48 432.702 121.76 434.849 121.76C444.742 121.76 449.689 115.087 449.689 101.74ZM470.969 101.18C470.969 106.873 470.269 112.053 468.869 116.72C467.469 121.387 465.416 125.4 462.709 128.76C460.002 132.12 456.642 134.733 452.629 136.6C448.616 138.467 443.996 139.4 438.769 139.4C435.876 139.4 433.169 139.12 430.649 138.56C428.129 138 425.702 137.207 423.369 136.18V163.9H402.509V66.88C404.376 66.32 406.522 65.8067 408.949 65.34C411.376 64.78 413.896 64.3133 416.509 63.94C419.216 63.5667 421.922 63.2867 424.629 63.1C427.429 62.82 430.089 62.68 432.609 62.68C438.676 62.68 444.089 63.6133 448.849 65.48C453.609 67.2533 457.622 69.82 460.889 73.18C464.156 76.4467 466.629 80.46 468.309 85.22C470.082 89.98 470.969 95.3 470.969 101.18ZM515.141 123.44C517.195 123.44 519.155 123.393 521.021 123.3C522.888 123.207 524.381 123.067 525.501 122.88V107.06C524.661 106.873 523.401 106.687 521.721 106.5C520.041 106.313 518.501 106.22 517.101 106.22C515.141 106.22 513.275 106.36 511.501 106.64C509.821 106.827 508.328 107.247 507.021 107.9C505.715 108.553 504.688 109.44 503.941 110.56C503.195 111.68 502.821 113.08 502.821 114.76C502.821 118.027 503.895 120.313 506.041 121.62C508.281 122.833 511.315 123.44 515.141 123.44ZM513.461 62.4C519.621 62.4 524.755 63.1 528.861 64.5C532.968 65.9 536.235 67.9067 538.661 70.52C541.181 73.1333 542.955 76.3067 543.981 80.04C545.008 83.7733 545.521 87.9267 545.521 92.5V135.9C542.535 136.553 538.381 137.3 533.061 138.14C527.741 139.073 521.301 139.54 513.741 139.54C508.981 139.54 504.641 139.12 500.721 138.28C496.895 137.44 493.581 136.087 490.781 134.22C487.981 132.26 485.835 129.74 484.341 126.66C482.848 123.58 482.101 119.8 482.101 115.32C482.101 111.027 482.941 107.387 484.621 104.4C486.395 101.413 488.728 99.0333 491.621 97.26C494.515 95.4867 497.828 94.2267 501.561 93.48C505.295 92.64 509.168 92.22 513.181 92.22C515.888 92.22 518.268 92.36 520.321 92.64C522.468 92.8267 524.195 93.1067 525.501 93.48V91.52C525.501 87.9733 524.428 85.1267 522.281 82.98C520.135 80.8333 516.401 79.76 511.081 79.76C507.535 79.76 504.035 80.04 500.581 80.6C497.128 81.0667 494.141 81.7667 491.621 82.7L488.961 65.9C490.175 65.5267 491.668 65.1533 493.441 64.78C495.308 64.3133 497.315 63.94 499.461 63.66C501.608 63.2867 503.848 63.0067 506.181 62.82C508.608 62.54 511.035 62.4 513.461 62.4ZM608.764 82.84C606.897 82.3733 604.704 81.9067 602.184 81.44C599.664 80.88 596.957 80.6 594.064 80.6C592.757 80.6 591.171 80.74 589.304 81.02C587.531 81.2067 586.177 81.44 585.244 81.72V138H564.384V68.28C568.117 66.9733 572.504 65.76 577.544 64.64C582.677 63.4267 588.371 62.82 594.624 62.82C595.744 62.82 597.097 62.9133 598.684 63.1C600.271 63.1933 601.857 63.38 603.444 63.66C605.031 63.8467 606.617 64.1267 608.204 64.5C609.791 64.78 611.144 65.1533 612.264 65.62L608.764 82.84ZM644.306 90.96C646.36 88.72 648.46 86.3867 650.606 83.96C652.846 81.5333 654.993 79.1533 657.046 76.82C659.1 74.3933 661.013 72.1067 662.786 69.96C664.653 67.8133 666.24 65.9467 667.546 64.36H692.326C687.38 70.0533 682.526 75.5133 677.766 80.74C673.1 85.8733 667.966 91.1933 662.366 96.7C665.166 99.22 668.06 102.253 671.046 105.8C674.033 109.253 676.926 112.847 679.726 116.58C682.526 120.313 685.093 124.047 687.426 127.78C689.76 131.513 691.72 134.92 693.306 138H669.366C667.873 135.573 666.146 132.913 664.186 130.02C662.32 127.033 660.313 124.093 658.166 121.2C656.02 118.213 653.733 115.367 651.306 112.66C648.973 109.953 646.64 107.667 644.306 105.8V138H623.446V32.72L644.306 29.36V90.96ZM733.921 139.4C727.854 139.307 722.907 138.653 719.081 137.44C715.347 136.227 712.361 134.547 710.121 132.4C707.974 130.16 706.481 127.5 705.641 124.42C704.894 121.247 704.521 117.7 704.521 113.78V32.72L725.381 29.36V109.58C725.381 111.447 725.521 113.127 725.801 114.62C726.081 116.113 726.594 117.373 727.341 118.4C728.181 119.427 729.347 120.267 730.841 120.92C732.334 121.573 734.341 121.993 736.861 122.18L733.921 139.4ZM745.318 101.74C745.318 95.2067 746.298 89.5133 748.258 84.66C750.311 79.7133 752.971 75.6067 756.238 72.34C759.504 69.0733 763.238 66.6 767.438 64.92C771.731 63.24 776.118 62.4 780.598 62.4C791.051 62.4 799.311 65.62 805.378 72.06C811.444 78.4067 814.478 87.7867 814.478 100.2C814.478 101.413 814.431 102.767 814.338 104.26C814.244 105.66 814.151 106.92 814.058 108.04H766.738C767.204 112.333 769.211 115.74 772.758 118.26C776.304 120.78 781.064 122.04 787.038 122.04C790.864 122.04 794.598 121.713 798.238 121.06C801.971 120.313 805.004 119.427 807.338 118.4L810.138 135.34C809.018 135.9 807.524 136.46 805.658 137.02C803.791 137.58 801.691 138.047 799.358 138.42C797.118 138.887 794.691 139.26 792.078 139.54C789.464 139.82 786.851 139.96 784.238 139.96C777.611 139.96 771.824 138.98 766.878 137.02C762.024 135.06 757.964 132.4 754.698 129.04C751.524 125.587 749.144 121.527 747.558 116.86C746.064 112.193 745.318 107.153 745.318 101.74ZM794.318 93.76C794.224 91.9867 793.898 90.26 793.338 88.58C792.871 86.9 792.078 85.4067 790.958 84.1C789.931 82.7933 788.578 81.72 786.898 80.88C785.311 80.04 783.304 79.62 780.878 79.62C778.544 79.62 776.538 80.04 774.858 80.88C773.178 81.6267 771.778 82.6533 770.658 83.96C769.538 85.2667 768.651 86.8067 767.998 88.58C767.438 90.26 767.018 91.9867 766.738 93.76H794.318Z" fill="#303030"/>
</svg>
