<svg width="14" height="15" viewBox="0 0 14 15" fill="none" xmlns="http://www.w3.org/2000/svg">
<path d="M1.48367 14.5H12.5148C12.6976 14.5 12.873 14.433 13.0023 14.3136C13.1316 14.1943 13.2042 14.0324 13.2042 13.8636V6.06945C13.2766 6.00905 13.3456 5.94533 13.411 5.87855C13.6719 5.57204 13.8529 5.21435 13.9403 4.83304C14.0277 4.45174 14.019 4.057 13.915 3.67927L13.1835 0.982364C13.1463 0.844634 13.0603 0.722344 12.9391 0.634941C12.8179 0.547537 12.6686 0.500039 12.5148 0.5H1.48367C1.32989 0.500039 1.18053 0.547537 1.05935 0.634941C0.93817 0.722344 0.852131 0.844634 0.814914 0.982364L0.0854837 3.678C-0.0188134 4.05559 -0.0277983 4.45024 0.0592211 4.83154C0.146241 5.21284 0.326941 5.5706 0.587398 5.87727C0.652844 5.94406 0.721875 6.00777 0.794231 6.06818V13.8636C0.794231 14.0324 0.866869 14.1943 0.996164 14.3136C1.12546 14.433 1.30082 14.5 1.48367 14.5ZM7.68866 13.2273H6.30978V10.0455H7.68866V13.2273ZM11.9763 1.77273L12.5761 3.98664C12.6277 4.17702 12.6315 4.37575 12.5874 4.56772C12.5433 4.75968 12.4523 4.93984 12.3215 5.0945C12.1906 5.24916 12.0232 5.37425 11.8321 5.46027C11.641 5.54628 11.4312 5.59096 11.2186 5.59091C10.8686 5.58886 10.5319 5.46645 10.2744 5.24758C10.0169 5.02871 9.85697 4.72911 9.82594 4.40727L9.58739 1.77273H11.9763ZM5.79476 1.77273H8.20368L8.42154 4.19091C8.43786 4.36902 8.41394 4.54831 8.35129 4.71744C8.28864 4.88658 8.18863 5.04186 8.05758 5.17346C7.92654 5.30507 7.76732 5.41012 7.59 5.48198C7.41269 5.55383 7.22114 5.59093 7.02749 5.59091H6.97095C6.7773 5.59093 6.58575 5.55383 6.40843 5.48198C6.23112 5.41012 6.0719 5.30507 5.94086 5.17346C5.80981 5.04186 5.7098 4.88658 5.64715 4.71744C5.5845 4.54831 5.56058 4.36902 5.5769 4.19091L5.79476 1.77273ZM4.92675 6.03636C5.18724 6.29694 5.50332 6.50495 5.85512 6.64732C6.20692 6.78969 6.58683 6.86334 6.97095 6.86364H7.02749C7.41161 6.86334 7.79152 6.78969 8.14332 6.64732C8.49511 6.50495 8.81119 6.29694 9.07168 6.03636C9.09306 6.01473 9.10754 5.988 9.12822 5.96636C9.45113 6.32095 9.8738 6.5864 10.3497 6.73349C10.8256 6.88058 11.3362 6.90359 11.8253 6.8V13.2273H9.06755V9.40909C9.06755 9.24032 8.99491 9.07846 8.86561 8.95911C8.73632 8.83977 8.56096 8.77273 8.37811 8.77273H5.62033C5.43748 8.77273 5.26212 8.83977 5.13282 8.95911C5.00353 9.07846 4.93089 9.24032 4.93089 9.40909V13.2273H2.17312V6.8C2.66232 6.90352 3.17299 6.8804 3.64887 6.7332C4.12475 6.586 4.54738 6.32043 4.87022 5.96573C4.8909 5.98736 4.90538 6.01409 4.92675 6.03636ZM1.42231 3.98664L2.02213 1.77273H4.41105L4.1725 4.40727C4.14147 4.72911 3.98158 5.02871 3.72406 5.24758C3.46654 5.46645 3.12988 5.58886 2.77983 5.59091C2.56722 5.59096 2.35739 5.54628 2.16629 5.46027C1.97519 5.37425 1.80785 5.24916 1.67698 5.0945C1.54611 4.93984 1.45516 4.75968 1.41103 4.56772C1.3669 4.37575 1.37076 4.17702 1.42231 3.98664Z" fill="white"/>
</svg>
