<svg width="14" height="15" viewBox="0 0 14 15" fill="none" xmlns="http://www.w3.org/2000/svg">
<path d="M13.38 4.47304L12.1075 3.19766L12.6598 2.64439C12.7155 2.59049 12.7599 2.52603 12.7905 2.45475C12.821 2.38347 12.8371 2.30681 12.8378 2.22923C12.8385 2.15166 12.8237 2.07473 12.7944 2.00293C12.7651 1.93113 12.7218 1.86589 12.667 1.81104C12.6122 1.75618 12.5471 1.7128 12.4755 1.68343C12.4038 1.65405 12.327 1.63927 12.2495 1.63994C12.1721 1.64062 12.0956 1.65673 12.0244 1.68735C11.9533 1.71797 11.8889 1.76248 11.8351 1.81828L11.2828 2.37155L10.0097 1.09675C9.60839 0.713684 9.07534 0.5 8.52104 0.5C7.96673 0.5 7.43368 0.713684 7.03239 1.09675C6.83676 1.29257 6.68157 1.52508 6.57568 1.78101C6.4698 2.03694 6.4153 2.31126 6.4153 2.5883C6.4153 2.86534 6.4698 3.13966 6.57568 3.39559C6.68157 3.65152 6.83676 3.88403 7.03239 4.07985L8.30496 5.35464L4.86752 8.79812L3.59438 7.52332C3.19309 7.14025 2.66004 6.92657 2.10574 6.92657C1.55143 6.92657 1.01838 7.14025 0.617095 7.52332C0.421463 7.71913 0.266269 7.95165 0.160384 8.20758C0.0544998 8.46351 0 8.73783 0 9.01487C0 9.2919 0.0544998 9.56623 0.160384 9.82216C0.266269 10.0781 0.421463 10.3106 0.617095 10.5064L1.88966 11.7812L1.33736 12.3345C1.28166 12.3884 1.23723 12.4528 1.20666 12.5241C1.1761 12.5954 1.16001 12.6721 1.15933 12.7496C1.15866 12.8272 1.17342 12.9041 1.20274 12.9759C1.23207 13.0477 1.27537 13.113 1.33013 13.1678C1.38489 13.2227 1.45001 13.2661 1.52168 13.2954C1.59335 13.3248 1.67015 13.3396 1.74759 13.3389C1.82503 13.3382 1.90156 13.3221 1.97271 13.2915C2.04386 13.2609 2.10822 13.2164 2.16202 13.1606L2.71431 12.6073L3.98746 13.8821C4.18292 14.078 4.41499 14.2334 4.67042 14.3394C4.92584 14.4454 5.19962 14.5 5.4761 14.5C5.75258 14.5 6.02636 14.4454 6.28178 14.3394C6.53721 14.2334 6.76928 14.078 6.96474 13.8821C7.16036 13.6863 7.31554 13.4539 7.42141 13.198C7.52729 12.9421 7.58179 12.6678 7.58179 12.3909C7.58179 12.1139 7.52729 11.8396 7.42141 11.5837C7.31554 11.3278 7.16036 11.0954 6.96474 10.8996L5.69218 9.62481L9.13311 6.18075L10.4057 7.45555C10.6011 7.65144 10.8332 7.80683 11.0886 7.91285C11.3441 8.01887 11.6178 8.07343 11.8943 8.07343C12.1708 8.07343 12.4446 8.01887 12.7 7.91285C12.9554 7.80683 13.1875 7.65144 13.383 7.45555C13.5786 7.25978 13.7338 7.02732 13.8396 6.77144C13.9455 6.51556 14 6.24128 14 5.96429C14 5.6873 13.9455 5.41303 13.8396 5.15715C13.7338 4.90127 13.5786 4.6688 13.383 4.47304H13.38ZM6.41536 12.3911C6.41561 12.5147 6.39141 12.6371 6.34416 12.7512C6.29691 12.8653 6.22755 12.9689 6.14008 13.056C5.96132 13.2273 5.72348 13.3229 5.4761 13.3229C5.22872 13.3229 4.99088 13.2273 4.81212 13.056L1.44175 9.67972C1.26565 9.50332 1.16672 9.26405 1.16672 9.01457C1.16672 8.76509 1.26565 8.52583 1.44175 8.34942C1.61785 8.17302 1.85669 8.07391 2.10574 8.07391C2.35478 8.07391 2.59362 8.17302 2.76972 8.34942L6.14008 11.7257C6.22762 11.8129 6.29702 11.9166 6.34428 12.0308C6.39153 12.145 6.41569 12.2675 6.41536 12.3911ZM12.5554 6.62944C12.3766 6.80075 12.1388 6.89636 11.8914 6.89636C11.644 6.89636 11.4062 6.80075 11.2274 6.62944L7.85705 3.25316C7.76986 3.16581 7.70069 3.06211 7.6535 2.94798C7.60631 2.83386 7.58202 2.71154 7.58202 2.58801C7.58202 2.46448 7.60631 2.34216 7.6535 2.22803C7.70069 2.11391 7.76986 2.01021 7.85705 1.92286C7.94425 1.83551 8.04776 1.76622 8.16169 1.71895C8.27562 1.67168 8.39772 1.64734 8.52104 1.64734C8.64435 1.64734 8.76645 1.67168 8.88038 1.71895C8.99431 1.76622 9.09782 1.83551 9.18502 1.92286L12.5554 5.29914C12.6427 5.38645 12.7119 5.49013 12.7591 5.60427C12.8064 5.7184 12.8307 5.84074 12.8307 5.96429C12.8307 6.08785 12.8064 6.21019 12.7591 6.32432C12.7119 6.43845 12.6427 6.54214 12.5554 6.62944Z" fill="white"/>
</svg>
