<svg width="14" height="15" viewBox="0 0 14 15" fill="none" xmlns="http://www.w3.org/2000/svg">
<path d="M12.1545 1.73171V9.91496H11.0274V5.20746H8.96821V0.5H4.01798V5.20746H1.95876V9.91496H0V12.7784H1.13016C1.11919 12.864 1.11315 12.9521 1.11315 13.0423C1.11315 13.8461 1.56873 14.5 2.1287 14.5C2.68868 14.5 3.14426 13.846 3.14426 13.0423C3.14426 12.9521 3.13825 12.864 3.12725 12.7784H9.85878C9.84784 12.864 9.84177 12.9521 9.84177 13.0423C9.84177 13.8461 10.2973 14.5 10.8573 14.5C11.4173 14.5 11.8729 13.846 11.8729 13.0423C11.8729 12.9521 11.8669 12.864 11.8559 12.7784H12.9861V10.5119V9.91496V2.92558H14V1.73171C14.0001 1.73171 12.1545 1.73171 12.1545 1.73171ZM8.96818 7.59697V6.40133H10.1957V9.91496H6.90896V6.40133H8.13646V7.59697H8.96818ZM4.84971 1.69391H6.07721V2.88951H6.90893V1.69391H8.13643V5.2075H6.90893H6.07721H4.84971V1.69391ZM2.79051 6.40137H4.01801V7.59701H4.84974V6.40137H6.07724V9.915H2.79051V6.40137ZM2.12876 13.3061C2.02737 13.3061 1.94493 13.1878 1.94493 13.0423C1.94493 12.8968 2.02739 12.7784 2.12876 12.7784C2.23012 12.7784 2.31259 12.8967 2.31259 13.0423C2.31259 13.1878 2.23012 13.3061 2.12876 13.3061ZM10.8574 13.3061C10.7561 13.3061 10.6736 13.1878 10.6736 13.0423C10.6736 12.8968 10.7561 12.7784 10.8574 12.7784C10.9589 12.7784 11.0413 12.8967 11.0413 13.0423C11.0413 13.1878 10.9588 13.3061 10.8574 13.3061ZM12.1545 11.5845H0.831723V11.1089H1.95876H6.07724H6.90896H11.0274H12.1545V11.5845Z" fill="white"/>
</svg>
