<svg width="14" height="15" viewBox="0 0 14 15" fill="none" xmlns="http://www.w3.org/2000/svg">
<path d="M10.944 3.56202C11.5801 4.23306 12.0437 5.05617 12.293 5.95717H14V9.04077H12.293C12.044 9.94251 11.5803 10.7664 10.944 11.438L11.799 12.9587L9.201 14.5L8.348 12.9793C7.46352 13.2085 6.53748 13.2085 5.653 12.9793L4.799 14.5L2.201 12.9587L3.056 11.438C2.41965 10.7664 1.95604 9.94251 1.707 9.04077H0V5.9582H1.707C1.95604 5.05646 2.41965 4.23262 3.056 3.56099L2.2 2.04128L4.797 0.5H4.8L5.654 2.01868C6.53848 1.78946 7.46452 1.78946 8.349 2.01868L9.2 0.5H9.202L11.8 2.04128L10.945 3.56202H10.944ZM10 7.49949C10 6.68194 9.68393 5.89787 9.12132 5.31978C8.55871 4.74169 7.79565 4.41692 7 4.41692C6.20435 4.41692 5.44129 4.74169 4.87868 5.31978C4.31607 5.89787 4 6.68194 4 7.49949C4 8.31703 4.31607 9.1011 4.87868 9.67919C5.44129 10.2573 6.20435 10.5821 7 10.5821C7.79565 10.5821 8.55871 10.2573 9.12132 9.67919C9.68393 9.1011 10 8.31703 10 7.49949Z" fill="white"/>
</svg>
