<svg width="14" height="15" viewBox="0 0 14 15" fill="none" xmlns="http://www.w3.org/2000/svg">
<g clip-path="url(#clip0_96_15946)">
<path d="M1.57198 1.80518L11.6462 11.8794C11.8374 12.0706 11.9448 12.3299 11.9448 12.6002C11.9448 12.8706 11.8374 13.1298 11.6462 13.321C11.455 13.5121 11.1958 13.6194 10.9255 13.6194C10.6551 13.6194 10.3959 13.5121 10.2047 13.321L7.74374 10.8177C7.58269 10.6541 7.49234 10.4339 7.49217 10.2044V10.0531C7.49219 9.93725 7.4692 9.82251 7.42451 9.71558C7.37982 9.60865 7.31434 9.51167 7.23186 9.43025L6.91413 9.13686C6.80626 9.03733 6.6751 8.96653 6.53271 8.93098C6.39031 8.89543 6.24127 8.89627 6.09928 8.93342C5.87538 8.99185 5.6401 8.99072 5.41677 8.93014C5.19344 8.86956 4.98983 8.75164 4.82616 8.58807L2.49018 6.25182C1.1044 4.86603 0.594439 2.77342 1.57198 1.80518Z" stroke="white" stroke-linejoin="round"/>
<path d="M10.9375 1.375L8.8252 3.4873C8.66265 3.64981 8.53371 3.84275 8.44574 4.0551C8.35778 4.26744 8.3125 4.49504 8.3125 4.72488V5.13121C8.31251 5.1887 8.30119 5.24563 8.27918 5.29874C8.25718 5.35185 8.22492 5.4001 8.18426 5.44074L7.875 5.75" stroke="white" stroke-linecap="round" stroke-linejoin="round"/>
<path d="M8.75 6.625L9.05926 6.31574C9.0999 6.27508 9.14815 6.24282 9.20126 6.22082C9.25437 6.19881 9.3113 6.18749 9.36879 6.1875H9.77512C10.005 6.1875 10.2326 6.14222 10.4449 6.05426C10.6573 5.96629 10.8502 5.83735 11.0127 5.6748L13.125 3.5625" stroke="white" stroke-linecap="round" stroke-linejoin="round"/>
<path d="M12.0312 2.46875L9.84375 4.65625" stroke="white" stroke-linecap="round" stroke-linejoin="round"/>
<path d="M5.46852 10.5625L2.7418 13.3045C2.53669 13.5096 2.25854 13.6248 1.96852 13.6248C1.67849 13.6248 1.40034 13.5096 1.19524 13.3045C0.990189 13.0994 0.875 12.8213 0.875 12.5312C0.875 12.2412 0.990189 11.9631 1.19524 11.758L3.49977 9.46875" stroke="white" stroke-linecap="round" stroke-linejoin="round"/>
</g>
<defs>
<clipPath id="clip0_96_15946">
<rect width="14" height="14" fill="white" transform="translate(0 0.5)"/>
</clipPath>
</defs>
</svg>
